<?xml version="1.0" encoding="UTF-8" standalone="no"?>
<!-- Created with Inkscape (http://www.inkscape.org/) -->

<svg
   xmlns:dc="http://purl.org/dc/elements/1.1/"
   xmlns:cc="http://creativecommons.org/ns#"
   xmlns:rdf="http://www.w3.org/1999/02/22-rdf-syntax-ns#"
   xmlns:svg="http://www.w3.org/2000/svg"
   xmlns="http://www.w3.org/2000/svg"
   xmlns:sodipodi="http://sodipodi.sourceforge.net/DTD/sodipodi-0.dtd"
   xmlns:inkscape="http://www.inkscape.org/namespaces/inkscape"
   width="7.2814837mm"
   height="3.4865026mm"
   viewBox="0 0 25.800532 12.35375"
   id="svg3349"
   version="1.1"
   inkscape:version="0.91 r13725"
   sodipodi:docname="boating_geologic.svg">
  <defs
     id="defs3351" />
  <sodipodi:namedview
     id="base"
     pagecolor="#ffffff"
     bordercolor="#666666"
     borderopacity="1.0"
     inkscape:pageopacity="0.0"
     inkscape:pageshadow="2"
     inkscape:zoom="5.6"
     inkscape:cx="20.151799"
     inkscape:cy="2.5206782"
     inkscape:document-units="px"
     inkscape:current-layer="layer1"
     showgrid="false"
     fit-margin-top="0"
     fit-margin-left="0"
     fit-margin-right="0"
     fit-margin-bottom="0"
     inkscape:window-width="638"
     inkscape:window-height="405"
     inkscape:window-x="72"
     inkscape:window-y="49"
     inkscape:window-maximized="0" />
  <metadata
     id="metadata3354">
    <rdf:RDF>
      <cc:Work
         rdf:about="">
        <dc:format>image/svg+xml</dc:format>
        <dc:type
           rdf:resource="http://purl.org/dc/dcmitype/StillImage" />
        <dc:title></dc:title>
      </cc:Work>
    </rdf:RDF>
  </metadata>
  <g
     inkscape:label="Layer 1"
     inkscape:groupmode="layer"
     id="layer1"
     transform="translate(-127.65951,-443.489)">
    <g
       id="g3425"
       transform="translate(0,0.231275)">
      <g
         transform="matrix(1.25,0,0,-1.25,82.85463,1847.2156)"
         id="g19756">
        <g
           id="g6958"
           transform="translate(37.0254,1122.9664)">
          <path
             d="m 0,0 c -0.542,0 -0.981,-0.44 -0.981,-0.981 l 0,-7.522 c 0,-0.54 0.439,-0.98 0.981,-0.98 l 7.521,0 c 0.541,0 0.981,0.44 0.981,0.98 l 0,7.522 C 8.502,-0.44 8.062,0 7.521,0 L 0,0 Z"
             style="fill:#ffffff;fill-opacity:1;fill-rule:nonzero;stroke:none"
             id="path6960"
             inkscape:connector-curvature="0" />
        </g>
        <g
           id="g6962"
           transform="translate(44.5469,1113.2833)">
          <path
             d="m 0,0 c 0.652,0 1.181,0.528 1.181,1.181 l 0,7.521 C 1.181,9.354 0.652,9.883 0,9.883 l -7.521,0 c -0.653,0 -1.182,-0.529 -1.182,-1.181 l 0,-7.521 C -8.703,0.528 -8.174,0 -7.521,0 L 0,0 Z"
             style="fill:#373535;fill-opacity:1;fill-rule:nonzero;stroke:none"
             id="path6964"
             inkscape:connector-curvature="0" />
        </g>
        <g
           id="g6966"
           transform="translate(38.0137,1121.1772)">
          <path
             d="M 0,0 1.664,-0.453 2.588,0.187 2.909,0.11 1.994,-0.532 7.037,-1.915 6.668,-3.269 1.606,-1.89 C -0.355,-1.307 0.003,0.001 0.003,0.001"
             style="fill:#ffffff;fill-opacity:1;fill-rule:nonzero;stroke:none"
             id="path6968"
             inkscape:connector-curvature="0" />
        </g>
        <g
           id="g6970"
           transform="translate(42.3877,1117.7144)">
          <path
             d="M 0,0 C -0.006,0.113 -0.027,0.221 -0.064,0.323 L 2.218,-0.312 2.145,-0.593 0,0 Z"
             style="fill:#ffffff;fill-opacity:1;fill-rule:nonzero;stroke:none"
             id="path6972"
             inkscape:connector-curvature="0" />
        </g>
        <g
           id="g6974"
           transform="translate(40.3155,1118.2867)">
          <path
             d="m 0,0 c 0.061,0.09 0.135,0.171 0.218,0.24 l -3.807,1.051 0,-0.302 L 0,0 Z"
             style="fill:#ffffff;fill-opacity:1;fill-rule:nonzero;stroke:none"
             id="path6976"
             inkscape:connector-curvature="0" />
        </g>
        <g
           id="g6978"
           transform="translate(44.9727,1115.0123)">
          <path
             d="M 0,0 C -0.181,0 -0.353,0.041 -0.506,0.11 -0.665,0.184 -0.843,0.226 -1.029,0.226 -1.215,0.226 -1.394,0.184 -1.551,0.11 -1.706,0.041 -1.878,0 -2.059,0 -2.239,0 -2.411,0.041 -2.566,0.11 -2.725,0.184 -2.902,0.226 -3.088,0.226 -3.274,0.226 -3.452,0.184 -3.611,0.11 -3.765,0.041 -3.939,0 -4.118,0 -4.298,0 -4.471,0.041 -4.625,0.11 -4.784,0.184 -4.963,0.226 -5.148,0.226 -5.334,0.226 -5.513,0.184 -5.67,0.11 -5.824,0.041 -5.998,0 -6.178,0 -6.357,0 -6.53,0.041 -6.686,0.11 -6.843,0.184 -7.021,0.226 -7.207,0.226 -7.393,0.226 -7.571,0.184 -7.73,0.11 -7.884,0.041 -8.058,0 -8.236,0 l -0.012,3.022 4.163,-1.147 c -0.287,0.139 -0.486,0.43 -0.486,0.768 0,0.473 0.382,0.856 0.855,0.856 0.472,0 0.856,-0.383 0.856,-0.856 0,-0.471 -0.384,-0.855 -0.856,-0.855 -0.028,0 -0.057,0.006 -0.084,0.009 L -0.006,0.751 0,0 Z m -3.716,2.273 c 0.205,0 0.371,0.165 0.371,0.37 0,0.206 -0.166,0.372 -0.371,0.372 -0.205,0 -0.371,-0.166 -0.371,-0.372 0,-0.205 0.166,-0.37 0.371,-0.37"
             style="fill:#ffffff;fill-opacity:1;fill-rule:nonzero;stroke:none"
             id="path6980"
             inkscape:connector-curvature="0" />
        </g>
      </g>
    </g>
    <g
       transform="translate(-229.05109,-83.768025)"
       id="g2989">
      <path
         d="m 371.63176,527.50765 c -0.675,0 -1.225,0.55125 -1.225,1.2275 l 0,9.4025 c 0,0.67374 0.55,1.2225 1.225,1.2225 l 9.4025,0 c 0.67624,0 1.22625,-0.54876 1.22625,-1.2225 l 0,-9.4025 c 0,-0.67626 -0.55001,-1.2275 -1.22625,-1.2275 l -9.4025,0 z"
         style="fill:#ffffff;fill-opacity:1;fill-rule:nonzero;stroke:none"
         id="path6574"
         inkscape:connector-curvature="0" />
      <path
         d="m 381.03488,539.61077 c 0.815,0 1.47625,-0.65875 1.47625,-1.47499 l 0,-9.40125 c 0,-0.81625 -0.66125,-1.4775 -1.47625,-1.4775 l -9.4025,0 c -0.815,0 -1.47625,0.66125 -1.47625,1.4775 l 0,9.40125 c 0,0.81625 0.66125,1.47499 1.47625,1.47499 l 9.4025,0 z"
         style="fill:#373535;fill-opacity:1;fill-rule:nonzero;stroke:none"
         id="path6578"
         inkscape:connector-curvature="0" />
      <path
         style="fill:#ffffff"
         d="m 381.12749,531.9496 c -0.0244,-0.39935 -0.14511,-0.48641 -0.58974,-0.78707 0.0488,-0.0993 0.0783,-0.21072 0.0783,-0.32738 0,-0.43766 -0.38542,-0.79116 -0.85907,-0.79116 -0.31924,0 -0.59727,0.16021 -0.7453,0.39935 -0.0905,-0.0598 -0.15381,-0.11662 -0.17296,-0.17356 -0.0748,-0.25306 -0.33144,-0.41501 -0.61122,-0.41385 -0.11082,-0.29836 -0.40689,-0.51196 -0.75516,-0.51196 -0.28383,0 -0.53517,0.14395 -0.6768,0.36046 -0.0866,0.0209 -0.17761,0.0465 -0.26352,0.0791 -0.38078,-0.0598 -0.61702,-0.0547 -0.76213,-0.0621 -0.29139,0.2072 -1.19284,1.05989 -1.19284,1.05989 0,0 -0.37669,0.46203 -0.3529,0.58392 -0.21826,0.0977 -2.22718,1.55911 -2.42221,1.80172 0,0 -0.69364,0.49918 0.17065,1.38902 0.8637,0.88808 1.69201,1.00939 2.00834,0.63211 0.31694,-0.37672 1.58289,-2.215 1.59451,-2.48259 0.19503,-0.18225 0.31634,-0.35291 0.31634,-0.35291 l 0.71859,0.0737 0.21941,-0.20779 c 0,0 0.17007,0.2194 0.47422,0.14625 0.2316,0.20724 0.57233,0.52358 0.57233,0.52358 l 0.73079,0.39006 c 0,0 -1.8023,1.93521 -1.97236,2.33688 -0.17066,0.4011 0.10907,1.19283 1.15566,1.65603 1.04771,0.46262 1.54748,0.25482 1.78779,-0.34073 0,0 0.68376,-1.77792 0.83062,-2.66541 0.40167,-0.94033 0.74298,-1.91433 0.71859,-2.31541 l 0,0 z m -7.32351,2.69909 c -0.73254,0 -1.34433,-0.54794 -1.50105,-1.28222 0.25655,0.0512 0.5642,0.19853 0.85557,0.42663 0.34305,0.26934 0.58278,0.58857 0.66637,0.85559 -0.005,0 -0.0128,0 -0.0209,0 l 0,0 z m 4.95179,2.02286 c -0.69885,0 -1.28974,-0.49918 -1.47781,-1.1841 0.30646,-0.0348 0.70989,0.0592 1.0982,0.27802 0.4069,0.23045 0.70119,0.54505 0.81843,0.83701 -0.1393,0.0447 -0.28674,0.069 -0.43882,0.069 z"
         inkscape:connector-curvature="0"
         id="path3011" />
    </g>
  </g>
</svg>
