<?xml version="1.0" encoding="UTF-8" standalone="no"?>
<!-- Created with Inkscape (http://www.inkscape.org/) -->

<svg
   xmlns:dc="http://purl.org/dc/elements/1.1/"
   xmlns:cc="http://creativecommons.org/ns#"
   xmlns:rdf="http://www.w3.org/1999/02/22-rdf-syntax-ns#"
   xmlns:svg="http://www.w3.org/2000/svg"
   xmlns="http://www.w3.org/2000/svg"
   xmlns:sodipodi="http://sodipodi.sourceforge.net/DTD/sodipodi-0.dtd"
   xmlns:inkscape="http://www.inkscape.org/namespaces/inkscape"
   width="11.209976mm"
   height="3.4865067mm"
   viewBox="0 0 39.720388 12.353765"
   id="svg3349"
   version="1.1"
   inkscape:version="0.91 r13725"
   sodipodi:docname="boat_dining_fish.svg">
  <defs
     id="defs3351" />
  <sodipodi:namedview
     id="base"
     pagecolor="#ffffff"
     bordercolor="#666666"
     borderopacity="1.0"
     inkscape:pageopacity="0.0"
     inkscape:pageshadow="2"
     inkscape:zoom="11.2"
     inkscape:cx="13.34981"
     inkscape:cy="5.1714766"
     inkscape:document-units="px"
     inkscape:current-layer="layer1"
     showgrid="false"
     fit-margin-top="0"
     fit-margin-left="0"
     fit-margin-right="0"
     fit-margin-bottom="0"
     inkscape:window-width="1377"
     inkscape:window-height="405"
     inkscape:window-x="100"
     inkscape:window-y="100"
     inkscape:window-maximized="0" />
  <metadata
     id="metadata3354">
    <rdf:RDF>
      <cc:Work
         rdf:about="">
        <dc:format>image/svg+xml</dc:format>
        <dc:type
           rdf:resource="http://purl.org/dc/dcmitype/StillImage" />
        <dc:title></dc:title>
      </cc:Work>
    </rdf:RDF>
  </metadata>
  <g
     inkscape:label="Layer 1"
     inkscape:groupmode="layer"
     id="layer1"
     transform="translate(-128.29411,-443.27866)">
    <g
       id="g3377"
       transform="translate(0.02333451,0.02101446)">
      <g
         id="g20564"
         transform="matrix(1.25,0,0,-1.25,97.147661,1672.5939)">
        <path
           inkscape:connector-curvature="0"
           id="path6634"
           style="fill:#ffffff;fill-opacity:1;fill-rule:nonzero;stroke:none"
           d="m 37.0254,983.2691 c -0.542,0 -0.981,-0.44 -0.981,-0.981 l 0,-7.521 c 0,-0.541 0.439,-0.981 0.981,-0.981 l 7.521,0 c 0.542,0 0.982,0.44 0.982,0.981 l 0,7.521 c 0,0.541 -0.44,0.981 -0.982,0.981 l -7.521,0 z" />
        <path
           inkscape:connector-curvature="0"
           id="path6638"
           style="fill:#373535;fill-opacity:1;fill-rule:nonzero;stroke:none"
           d="m 44.5469,973.586 c 0.652,0 1.182,0.528 1.182,1.181 l 0,7.521 c 0,0.652 -0.53,1.181 -1.182,1.181 l -7.521,0 c -0.653,0 -1.182,-0.529 -1.182,-1.181 l 0,-7.521 c 0,-0.653 0.529,-1.181 1.182,-1.181 l 7.521,0 z" />
        <path
           inkscape:connector-curvature="0"
           id="path6642"
           style="fill:#ffffff;fill-opacity:1;fill-rule:nonzero;stroke:none"
           d="m 44.7227,974.9708 c -1.904,-0.028 -3.895,0.335 -5.418,1.559 -0.01,0.01 -0.014,0.021 -0.014,0.035 0,0.028 0.024,0.051 0.051,0.051 l 1.502,-0.002 c 0.072,0 0.133,0.06 0.133,0.133 0,0.055 -0.025,0.093 -0.084,0.122 l -1.357,0.648 c -0.026,0.016 -0.043,0.044 -0.043,0.076 0,0.025 0.009,0.047 0.025,0.063 0,0 1.654,1.462 5.205,1.43 l 0,-4.115 z m -3.184,2.316 c 0.178,0 0.321,0.144 0.321,0.322 0,0.177 -0.143,0.321 -0.321,0.321 -0.177,0 -0.322,-0.144 -0.322,-0.321 0,-0.178 0.145,-0.322 0.322,-0.322" />
        <path
           inkscape:connector-curvature="0"
           id="path6646"
           style="fill:#ffffff;fill-opacity:1;fill-rule:nonzero;stroke:none"
           d="m 43.9976,982.2598 c -1.177,-0.013 -2.328,-0.515 -3.619,-1.574 -0.048,0.014 -0.154,0.042 -0.154,0.042 -0.205,0 -0.372,-0.166 -0.372,-0.371 0,0 0.015,-0.069 0.023,-0.112 -0.039,-0.037 -1.043,-0.979 -1.043,-0.979 l -0.887,-0.836 c -0.084,-0.076 -0.191,-0.114 -0.304,-0.109 -0.112,0.005 -0.215,0.054 -0.29,0.137 -0.073,0.08 -0.108,0.181 -0.108,0.283 0,0.114 0.046,0.228 0.136,0.31 0,0 0.067,0.037 0.117,0.066 0.011,-0.076 0.043,-0.308 0.043,-0.308 l 0.723,0.922 -0.798,-0.272 c -0.211,-0.072 -0.297,-0.178 -0.3,-0.183 -0.293,-0.264 -0.316,-0.728 -0.045,-1.028 0.271,-0.299 0.736,-0.321 1.035,-0.049 l 0.008,0.009 0.841,0.801 c 0,0 1.039,0.983 1.073,1.015 0.05,-0.013 0.148,-0.038 0.148,-0.038 0.204,0 0.37,0.166 0.37,0.371 0,0 -0.01,0.054 -0.017,0.093 1.249,1.028 2.341,1.515 3.435,1.528 0.224,0.002 0.404,-0.028 0.699,-0.09 l 0.061,-0.014 0,0.293 -0.04,0.008 c -0.304,0.065 -0.504,0.088 -0.735,0.085" />
      </g>
    </g>
    <g
       id="g3384"
       transform="translate(0,0.02093946)">
      <g
         transform="matrix(1.25,0,0,-1.25,110.85463,1847.2156)"
         id="g19756">
        <g
           id="g6958"
           transform="translate(37.0254,1122.9664)">
          <path
             d="m 0,0 c -0.542,0 -0.981,-0.44 -0.981,-0.981 l 0,-7.522 c 0,-0.54 0.439,-0.98 0.981,-0.98 l 7.521,0 c 0.541,0 0.981,0.44 0.981,0.98 l 0,7.522 C 8.502,-0.44 8.062,0 7.521,0 L 0,0 Z"
             style="fill:#ffffff;fill-opacity:1;fill-rule:nonzero;stroke:none"
             id="path6960"
             inkscape:connector-curvature="0" />
        </g>
        <g
           id="g6962"
           transform="translate(44.5469,1113.2833)">
          <path
             d="m 0,0 c 0.652,0 1.181,0.528 1.181,1.181 l 0,7.521 C 1.181,9.354 0.652,9.883 0,9.883 l -7.521,0 c -0.653,0 -1.182,-0.529 -1.182,-1.181 l 0,-7.521 C -8.703,0.528 -8.174,0 -7.521,0 L 0,0 Z"
             style="fill:#373535;fill-opacity:1;fill-rule:nonzero;stroke:none"
             id="path6964"
             inkscape:connector-curvature="0" />
        </g>
        <g
           id="g6966"
           transform="translate(38.0137,1121.1772)">
          <path
             d="M 0,0 1.664,-0.453 2.588,0.187 2.909,0.11 1.994,-0.532 7.037,-1.915 6.668,-3.269 1.606,-1.89 C -0.355,-1.307 0.003,0.001 0.003,0.001"
             style="fill:#ffffff;fill-opacity:1;fill-rule:nonzero;stroke:none"
             id="path6968"
             inkscape:connector-curvature="0" />
        </g>
        <g
           id="g6970"
           transform="translate(42.3877,1117.7144)">
          <path
             d="M 0,0 C -0.006,0.113 -0.027,0.221 -0.064,0.323 L 2.218,-0.312 2.145,-0.593 0,0 Z"
             style="fill:#ffffff;fill-opacity:1;fill-rule:nonzero;stroke:none"
             id="path6972"
             inkscape:connector-curvature="0" />
        </g>
        <g
           id="g6974"
           transform="translate(40.3155,1118.2867)">
          <path
             d="m 0,0 c 0.061,0.09 0.135,0.171 0.218,0.24 l -3.807,1.051 0,-0.302 L 0,0 Z"
             style="fill:#ffffff;fill-opacity:1;fill-rule:nonzero;stroke:none"
             id="path6976"
             inkscape:connector-curvature="0" />
        </g>
        <g
           id="g6978"
           transform="translate(44.9727,1115.0123)">
          <path
             d="M 0,0 C -0.181,0 -0.353,0.041 -0.506,0.11 -0.665,0.184 -0.843,0.226 -1.029,0.226 -1.215,0.226 -1.394,0.184 -1.551,0.11 -1.706,0.041 -1.878,0 -2.059,0 -2.239,0 -2.411,0.041 -2.566,0.11 -2.725,0.184 -2.902,0.226 -3.088,0.226 -3.274,0.226 -3.452,0.184 -3.611,0.11 -3.765,0.041 -3.939,0 -4.118,0 -4.298,0 -4.471,0.041 -4.625,0.11 -4.784,0.184 -4.963,0.226 -5.148,0.226 -5.334,0.226 -5.513,0.184 -5.67,0.11 -5.824,0.041 -5.998,0 -6.178,0 -6.357,0 -6.53,0.041 -6.686,0.11 -6.843,0.184 -7.021,0.226 -7.207,0.226 -7.393,0.226 -7.571,0.184 -7.73,0.11 -7.884,0.041 -8.058,0 -8.236,0 l -0.012,3.022 4.163,-1.147 c -0.287,0.139 -0.486,0.43 -0.486,0.768 0,0.473 0.382,0.856 0.855,0.856 0.472,0 0.856,-0.383 0.856,-0.856 0,-0.471 -0.384,-0.855 -0.856,-0.855 -0.028,0 -0.057,0.006 -0.084,0.009 L -0.006,0.751 0,0 Z m -3.716,2.273 c 0.205,0 0.371,0.165 0.371,0.37 0,0.206 -0.166,0.372 -0.371,0.372 -0.205,0 -0.371,-0.166 -0.371,-0.372 0,-0.205 0.166,-0.37 0.371,-0.37"
             style="fill:#ffffff;fill-opacity:1;fill-rule:nonzero;stroke:none"
             id="path6980"
             inkscape:connector-curvature="0" />
        </g>
      </g>
    </g>
    <g
       transform="matrix(1.2500001,0,0,-1.2500001,83.486732,1656.7404)"
       id="g20619">
      <g
         transform="translate(37.0264,970.5689)"
         id="g7298">
        <path
           inkscape:connector-curvature="0"
           id="path7300"
           style="fill:#ffffff;fill-opacity:1;fill-rule:nonzero;stroke:none"
           d="m 0,0 c -0.54,0 -0.98,-0.44 -0.98,-0.981 l 0,-7.522 c 0,-0.54 0.44,-0.979 0.98,-0.979 l 7.521,0 c 0.541,0 0.981,0.439 0.981,0.979 l 0,7.522 C 8.502,-0.44 8.062,0 7.521,0 L 0,0 Z" />
      </g>
      <g
         transform="translate(44.5479,960.8863)"
         id="g7302">
        <path
           inkscape:connector-curvature="0"
           id="path7304"
           style="fill:#373535;fill-opacity:1;fill-rule:nonzero;stroke:none"
           d="m 0,0 c 0.652,0 1.181,0.528 1.181,1.18 l 0,7.522 C 1.181,9.354 0.652,9.883 0,9.883 l -7.521,0 c -0.653,0 -1.181,-0.529 -1.181,-1.181 l 0,-7.522 C -8.702,0.528 -8.174,0 -7.521,0 L 0,0 Z" />
      </g>
      <g
         transform="translate(40.3574,967.292)"
         id="g7306">
        <path
           inkscape:connector-curvature="0"
           id="path7308"
           style="fill:#ffffff;fill-opacity:1;fill-rule:nonzero;stroke:none"
           d="m 0,0 c 0,-0.261 -0.237,-0.539 -0.545,-0.539 l 0,-4.402 c 0,-0.624 -0.852,-0.624 -0.852,0 l 0,4.402 c -0.3,0 -0.561,0.231 -0.561,0.578 l 0,2.422 c 0,0.211 0.305,0.22 0.305,-0.008 l 0,-1.791 0.255,0 0.294,0 -0.023,0 0,1.805 c 0,0.202 0.285,0.21 0.285,-0.008 l 0,-1.797 0.545,0 0,1.805 C -0.297,2.666 0,2.674 0,2.459 L 0,0 Z" />
      </g>
      <g
         transform="translate(43.0283,969.1895)"
         id="g7310">
        <path
           inkscape:connector-curvature="0"
           id="path7312"
           style="fill:#ffffff;fill-opacity:1;fill-rule:nonzero;stroke:none"
           d="m 0,0 0,-6.836 c 0,-0.611 -0.854,-0.603 -0.854,0 l 0,2.711 -0.455,0 0,4.125 C -1.309,0.959 0,0.959 0,0" />
      </g>
    </g>
  </g>
</svg>
