<?xml version="1.0" encoding="UTF-8" standalone="no"?>
<!-- Created with Inkscape (http://www.inkscape.org/) -->

<svg
   xmlns:dc="http://purl.org/dc/elements/1.1/"
   xmlns:cc="http://creativecommons.org/ns#"
   xmlns:rdf="http://www.w3.org/1999/02/22-rdf-syntax-ns#"
   xmlns:svg="http://www.w3.org/2000/svg"
   xmlns="http://www.w3.org/2000/svg"
   xmlns:sodipodi="http://sodipodi.sourceforge.net/DTD/sodipodi-0.dtd"
   xmlns:inkscape="http://www.inkscape.org/namespaces/inkscape"
   width="7.3033705mm"
   height="3.4865026mm"
   viewBox="0 0 25.878084 12.35375"
   id="svg3349"
   version="1.1"
   inkscape:version="0.91 r13725"
   sodipodi:docname="boat_picnic.svg">
  <defs
     id="defs3351" />
  <sodipodi:namedview
     id="base"
     pagecolor="#ffffff"
     bordercolor="#666666"
     borderopacity="1.0"
     inkscape:pageopacity="0.0"
     inkscape:pageshadow="2"
     inkscape:zoom="15.839192"
     inkscape:cx="18.532801"
     inkscape:cy="1.5430941"
     inkscape:document-units="px"
     inkscape:current-layer="layer1"
     showgrid="false"
     fit-margin-top="0"
     fit-margin-left="0"
     fit-margin-right="0"
     fit-margin-bottom="0"
     inkscape:window-width="1920"
     inkscape:window-height="1018"
     inkscape:window-x="-8"
     inkscape:window-y="-8"
     inkscape:window-maximized="1" />
  <metadata
     id="metadata3354">
    <rdf:RDF>
      <cc:Work
         rdf:about="">
        <dc:format>image/svg+xml</dc:format>
        <dc:type
           rdf:resource="http://purl.org/dc/dcmitype/StillImage" />
        <dc:title></dc:title>
      </cc:Work>
    </rdf:RDF>
  </metadata>
  <g
     inkscape:label="Layer 1"
     inkscape:groupmode="layer"
     id="layer1"
     transform="translate(-128.24682,-443.28932)">
    <g
       transform="matrix(1.25,0,0,-1.25,82.751693,1434.3467)"
       id="g21211">
      <path
         d="m 37.5767,792.6465 c -0.54,0 -0.98,-0.441 -0.98,-0.982 l 0,-7.522 c 0,-0.539 0.44,-0.978 0.98,-0.978 l 7.522,0 c 0.541,0 0.981,0.439 0.981,0.978 l 0,7.522 c 0,0.541 -0.44,0.982 -0.981,0.982 l -7.522,0 z"
         style="fill:#ffffff;fill-opacity:1;fill-rule:nonzero;stroke:none"
         id="path6574"
         inkscape:connector-curvature="0" />
      <path
         d="m 45.0991,782.9629 c 0.652,0 1.181,0.527 1.181,1.18 l 0,7.521 c 0,0.653 -0.529,1.182 -1.181,1.182 l -7.522,0 c -0.652,0 -1.181,-0.529 -1.181,-1.182 l 0,-7.521 c 0,-0.653 0.529,-1.18 1.181,-1.18 l 7.522,0 z"
         style="fill:#373535;fill-opacity:1;fill-rule:nonzero;stroke:none"
         id="path6578"
         inkscape:connector-curvature="0" />
      <path
         d="m 38.6782,790.004 0,0.728 5.291,0 0,-0.728 -1.336,0 0.796,-1.971 1.971,0 0,-0.728 -1.674,0 0.931,-2.295 -0.904,0 -0.931,2.295 -3.01,0 -0.925,-2.295 -0.904,0 0.924,2.295 -1.66,0 0,0.728 1.957,0 0.797,1.971 -1.323,0 z m 1.35,-1.971 2.416,0 -0.796,1.971 -0.824,0 -0.796,-1.971 z"
         style="fill:#ffffff;fill-opacity:1;fill-rule:nonzero;stroke:none"
         id="path6582"
         inkscape:connector-curvature="0" />
    </g>
    <g
       id="g19756"
       transform="matrix(1.25,0,0,-1.25,96.965031,1847.2472)">
      <g
         transform="translate(37.0254,1122.9664)"
         id="g6958">
        <path
           inkscape:connector-curvature="0"
           id="path6960"
           style="fill:#ffffff;fill-opacity:1;fill-rule:nonzero;stroke:none"
           d="m 0,0 c -0.542,0 -0.981,-0.44 -0.981,-0.981 l 0,-7.522 c 0,-0.54 0.439,-0.98 0.981,-0.98 l 7.521,0 c 0.541,0 0.981,0.44 0.981,0.98 l 0,7.522 C 8.502,-0.44 8.062,0 7.521,0 L 0,0 Z" />
      </g>
      <g
         transform="translate(44.5469,1113.2833)"
         id="g6962">
        <path
           inkscape:connector-curvature="0"
           id="path6964"
           style="fill:#373535;fill-opacity:1;fill-rule:nonzero;stroke:none"
           d="m 0,0 c 0.652,0 1.181,0.528 1.181,1.181 l 0,7.521 C 1.181,9.354 0.652,9.883 0,9.883 l -7.521,0 c -0.653,0 -1.182,-0.529 -1.182,-1.181 l 0,-7.521 C -8.703,0.528 -8.174,0 -7.521,0 L 0,0 Z" />
      </g>
      <g
         transform="translate(38.0137,1121.1772)"
         id="g6966">
        <path
           inkscape:connector-curvature="0"
           id="path6968"
           style="fill:#ffffff;fill-opacity:1;fill-rule:nonzero;stroke:none"
           d="M 0,0 1.664,-0.453 2.588,0.187 2.909,0.11 1.994,-0.532 7.037,-1.915 6.668,-3.269 1.606,-1.89 C -0.355,-1.307 0.003,0.001 0.003,0.001" />
      </g>
      <g
         transform="translate(42.3877,1117.7144)"
         id="g6970">
        <path
           inkscape:connector-curvature="0"
           id="path6972"
           style="fill:#ffffff;fill-opacity:1;fill-rule:nonzero;stroke:none"
           d="M 0,0 C -0.006,0.113 -0.027,0.221 -0.064,0.323 L 2.218,-0.312 2.145,-0.593 0,0 Z" />
      </g>
      <g
         transform="translate(40.3155,1118.2867)"
         id="g6974">
        <path
           inkscape:connector-curvature="0"
           id="path6976"
           style="fill:#ffffff;fill-opacity:1;fill-rule:nonzero;stroke:none"
           d="m 0,0 c 0.061,0.09 0.135,0.171 0.218,0.24 l -3.807,1.051 0,-0.302 L 0,0 Z" />
      </g>
      <g
         transform="translate(44.9727,1115.0123)"
         id="g6978">
        <path
           inkscape:connector-curvature="0"
           id="path6980"
           style="fill:#ffffff;fill-opacity:1;fill-rule:nonzero;stroke:none"
           d="M 0,0 C -0.181,0 -0.353,0.041 -0.506,0.11 -0.665,0.184 -0.843,0.226 -1.029,0.226 -1.215,0.226 -1.394,0.184 -1.551,0.11 -1.706,0.041 -1.878,0 -2.059,0 -2.239,0 -2.411,0.041 -2.566,0.11 -2.725,0.184 -2.902,0.226 -3.088,0.226 -3.274,0.226 -3.452,0.184 -3.611,0.11 -3.765,0.041 -3.939,0 -4.118,0 -4.298,0 -4.471,0.041 -4.625,0.11 -4.784,0.184 -4.963,0.226 -5.148,0.226 -5.334,0.226 -5.513,0.184 -5.67,0.11 -5.824,0.041 -5.998,0 -6.178,0 -6.357,0 -6.53,0.041 -6.686,0.11 -6.843,0.184 -7.021,0.226 -7.207,0.226 -7.393,0.226 -7.571,0.184 -7.73,0.11 -7.884,0.041 -8.058,0 -8.236,0 l -0.012,3.022 4.163,-1.147 c -0.287,0.139 -0.486,0.43 -0.486,0.768 0,0.473 0.382,0.856 0.855,0.856 0.472,0 0.856,-0.383 0.856,-0.856 0,-0.471 -0.384,-0.855 -0.856,-0.855 -0.028,0 -0.057,0.006 -0.084,0.009 L -0.006,0.751 0,0 Z m -3.716,2.273 c 0.205,0 0.371,0.165 0.371,0.37 0,0.206 -0.166,0.372 -0.371,0.372 -0.205,0 -0.371,-0.166 -0.371,-0.372 0,-0.205 0.166,-0.37 0.371,-0.37" />
      </g>
    </g>
  </g>
</svg>
