<?xml version="1.0" encoding="UTF-8" standalone="no"?>
<!-- Created with Inkscape (http://www.inkscape.org/) -->

<svg
   xmlns:dc="http://purl.org/dc/elements/1.1/"
   xmlns:cc="http://creativecommons.org/ns#"
   xmlns:rdf="http://www.w3.org/1999/02/22-rdf-syntax-ns#"
   xmlns:svg="http://www.w3.org/2000/svg"
   xmlns="http://www.w3.org/2000/svg"
   xmlns:sodipodi="http://sodipodi.sourceforge.net/DTD/sodipodi-0.dtd"
   xmlns:inkscape="http://www.inkscape.org/namespaces/inkscape"
   width="11.111823mm"
   height="3.4865732mm"
   viewBox="0 0 39.372601 12.354"
   id="svg3349"
   version="1.1"
   inkscape:version="0.91 r13725"
   sodipodi:docname="boat_picnic_visitor.svg">
  <defs
     id="defs3351" />
  <sodipodi:namedview
     id="base"
     pagecolor="#ffffff"
     bordercolor="#666666"
     borderopacity="1.0"
     inkscape:pageopacity="0.0"
     inkscape:pageshadow="2"
     inkscape:zoom="3.959798"
     inkscape:cx="18.220875"
     inkscape:cy="0.68959907"
     inkscape:document-units="px"
     inkscape:current-layer="g3370"
     showgrid="false"
     fit-margin-top="0"
     fit-margin-left="0"
     fit-margin-right="0"
     fit-margin-bottom="0"
     inkscape:window-width="638"
     inkscape:window-height="405"
     inkscape:window-x="250"
     inkscape:window-y="250"
     inkscape:window-maximized="0" />
  <metadata
     id="metadata3354">
    <rdf:RDF>
      <cc:Work
         rdf:about="">
        <dc:format>image/svg+xml</dc:format>
        <dc:type
           rdf:resource="http://purl.org/dc/dcmitype/StillImage" />
        <dc:title></dc:title>
      </cc:Work>
    </rdf:RDF>
  </metadata>
  <g
     inkscape:label="Layer 1"
     inkscape:groupmode="layer"
     id="layer1"
     transform="translate(-128.6419,-443.23724)">
    <g
       transform="translate(-244.9891,-87.517038)"
       id="g3370">
      <g
         id="g3426">
        <g
           id="g21211"
           transform="matrix(1.25,0,0,-1.25,341.64493,1521.8117)">
          <path
             inkscape:connector-curvature="0"
             id="path6574"
             style="fill:#ffffff;fill-opacity:1;fill-rule:nonzero;stroke:none"
             d="m 37.5767,792.6465 c -0.54,0 -0.98,-0.441 -0.98,-0.982 l 0,-7.522 c 0,-0.539 0.44,-0.978 0.98,-0.978 l 7.522,0 c 0.541,0 0.981,0.439 0.981,0.978 l 0,7.522 c 0,0.541 -0.44,0.982 -0.981,0.982 l -7.522,0 z" />
          <path
             inkscape:connector-curvature="0"
             id="path6578"
             style="fill:#373535;fill-opacity:1;fill-rule:nonzero;stroke:none"
             d="m 45.0991,782.9629 c 0.652,0 1.181,0.527 1.181,1.18 l 0,7.521 c 0,0.653 -0.529,1.182 -1.181,1.182 l -7.522,0 c -0.652,0 -1.181,-0.529 -1.181,-1.182 l 0,-7.521 c 0,-0.653 0.529,-1.18 1.181,-1.18 l 7.522,0 z" />
          <path
             inkscape:connector-curvature="0"
             id="path6582"
             style="fill:#ffffff;fill-opacity:1;fill-rule:nonzero;stroke:none"
             d="m 38.6782,790.004 0,0.728 5.291,0 0,-0.728 -1.336,0 0.796,-1.971 1.971,0 0,-0.728 -1.674,0 0.931,-2.295 -0.904,0 -0.931,2.295 -3.01,0 -0.925,-2.295 -0.904,0 0.924,2.295 -1.66,0 0,0.728 1.957,0 0.797,1.971 -1.323,0 z m 1.35,-1.971 2.416,0 -0.796,1.971 -0.824,0 -0.796,-1.971 z" />
        </g>
        <g
           transform="matrix(1.25,0,0,-1.25,355.84373,1934.7122)"
           id="g19756">
          <g
             id="g6958"
             transform="translate(37.0254,1122.9664)">
            <path
               d="m 0,0 c -0.542,0 -0.981,-0.44 -0.981,-0.981 l 0,-7.522 c 0,-0.54 0.439,-0.98 0.981,-0.98 l 7.521,0 c 0.541,0 0.981,0.44 0.981,0.98 l 0,7.522 C 8.502,-0.44 8.062,0 7.521,0 L 0,0 Z"
               style="fill:#ffffff;fill-opacity:1;fill-rule:nonzero;stroke:none"
               id="path6960"
               inkscape:connector-curvature="0" />
          </g>
          <g
             id="g6962"
             transform="translate(44.5469,1113.2833)">
            <path
               d="m 0,0 c 0.652,0 1.181,0.528 1.181,1.181 l 0,7.521 C 1.181,9.354 0.652,9.883 0,9.883 l -7.521,0 c -0.653,0 -1.182,-0.529 -1.182,-1.181 l 0,-7.521 C -8.703,0.528 -8.174,0 -7.521,0 L 0,0 Z"
               style="fill:#373535;fill-opacity:1;fill-rule:nonzero;stroke:none"
               id="path6964"
               inkscape:connector-curvature="0" />
          </g>
          <g
             id="g6966"
             transform="translate(38.0137,1121.1772)">
            <path
               d="M 0,0 1.664,-0.453 2.588,0.187 2.909,0.11 1.994,-0.532 7.037,-1.915 6.668,-3.269 1.606,-1.89 C -0.355,-1.307 0.003,0.001 0.003,0.001"
               style="fill:#ffffff;fill-opacity:1;fill-rule:nonzero;stroke:none"
               id="path6968"
               inkscape:connector-curvature="0" />
          </g>
          <g
             id="g6970"
             transform="translate(42.3877,1117.7144)">
            <path
               d="M 0,0 C -0.006,0.113 -0.027,0.221 -0.064,0.323 L 2.218,-0.312 2.145,-0.593 0,0 Z"
               style="fill:#ffffff;fill-opacity:1;fill-rule:nonzero;stroke:none"
               id="path6972"
               inkscape:connector-curvature="0" />
          </g>
          <g
             id="g6974"
             transform="translate(40.3155,1118.2867)">
            <path
               d="m 0,0 c 0.061,0.09 0.135,0.171 0.218,0.24 l -3.807,1.051 0,-0.302 L 0,0 Z"
               style="fill:#ffffff;fill-opacity:1;fill-rule:nonzero;stroke:none"
               id="path6976"
               inkscape:connector-curvature="0" />
          </g>
          <g
             id="g6978"
             transform="translate(44.9727,1115.0123)">
            <path
               d="M 0,0 C -0.181,0 -0.353,0.041 -0.506,0.11 -0.665,0.184 -0.843,0.226 -1.029,0.226 -1.215,0.226 -1.394,0.184 -1.551,0.11 -1.706,0.041 -1.878,0 -2.059,0 -2.239,0 -2.411,0.041 -2.566,0.11 -2.725,0.184 -2.902,0.226 -3.088,0.226 -3.274,0.226 -3.452,0.184 -3.611,0.11 -3.765,0.041 -3.939,0 -4.118,0 -4.298,0 -4.471,0.041 -4.625,0.11 -4.784,0.184 -4.963,0.226 -5.148,0.226 -5.334,0.226 -5.513,0.184 -5.67,0.11 -5.824,0.041 -5.998,0 -6.178,0 -6.357,0 -6.53,0.041 -6.686,0.11 -6.843,0.184 -7.021,0.226 -7.207,0.226 -7.393,0.226 -7.571,0.184 -7.73,0.11 -7.884,0.041 -8.058,0 -8.236,0 l -0.012,3.022 4.163,-1.147 c -0.287,0.139 -0.486,0.43 -0.486,0.768 0,0.473 0.382,0.856 0.855,0.856 0.472,0 0.856,-0.383 0.856,-0.856 0,-0.471 -0.384,-0.855 -0.856,-0.855 -0.028,0 -0.057,0.006 -0.084,0.009 L -0.006,0.751 0,0 Z m -3.716,2.273 c 0.205,0 0.371,0.165 0.371,0.37 0,0.206 -0.166,0.372 -0.371,0.372 -0.205,0 -0.371,-0.166 -0.371,-0.372 0,-0.205 0.166,-0.37 0.371,-0.37"
               style="fill:#ffffff;fill-opacity:1;fill-rule:nonzero;stroke:none"
               id="path6980"
               inkscape:connector-curvature="0" />
          </g>
        </g>
        <g
           transform="translate(0,-0.0527185)"
           id="g3402">
          <path
             style="fill:#373535"
             d="m 384.51,543.161 c 0.815,0 1.477,-0.659 1.477,-1.475 l 0,-9.401 c 0,-0.816 -0.661,-1.478 -1.477,-1.478 l -9.402,0 c -0.815,0 -1.477,0.661 -1.477,1.478 l 0,9.401 c 0,0.815 0.661,1.475 1.477,1.475 l 9.402,0 z"
             inkscape:connector-curvature="0"
             id="path6578-7" />
          <g
             transform="matrix(1.2926445,0,0,1.2926445,-111.15971,-157.14592)"
             id="g3365">
            <path
               style="fill:#ffffff"
               d="m 379.72938,536.79768 c 0.49373,0.012 0.90328,-0.37473 0.91721,-0.8672 0.0165,-0.49247 -0.37284,-0.90265 -0.86404,-0.91784 -0.49437,-0.0139 -0.90455,0.37283 -0.91911,0.86593 -0.0139,0.49247 0.37284,0.90328 0.86594,0.91911 l 0,0 z"
               inkscape:connector-curvature="0"
               id="path18257" />
            <path
               style="fill:#ffffff"
               d="m 378.06271,536.41219 c 0.16394,-0.003 0.68046,0.0804 1.02418,0.34308 0.34118,0.26143 0.56906,0.56146 0.66021,0.71591 0.0291,0.0462 0.0608,0.0987 0.0703,0.16142 0.0127,-0.0627 0.0335,-0.12217 0.0563,-0.15319 0.062,-0.0994 0.34308,-0.46398 0.48361,-0.58425 0.25699,-0.21965 0.53994,-0.43423 1.23244,-0.49563 l -0.004,0.93809 c -0.1247,0.005 -0.39372,0.0791 -0.62477,0.27156 -0.23547,0.19812 -0.49626,0.57982 -0.57729,0.85327 -0.0823,0.27156 -0.0949,0.49817 -0.10001,0.65895 l -0.0127,1.82429 -0.88049,0.005 -0.003,-1.81922 c -0.003,-0.17218 -0.0373,-0.52222 -0.12913,-0.69503 -0.0918,-0.17281 -0.29181,-0.65008 -0.64945,-0.88113 -0.11014,-0.0703 -0.27598,-0.21458 -0.54374,-0.21648 l -0.003,-0.9267 0,0 0,0 z"
               inkscape:connector-curvature="0"
               id="path18259" />
            <path
               style="fill:#ffffff"
               d="m 379.81167,534.11695 c 0.0228,0.0279 0.0633,0.0715 0.10318,0.0994 0.0532,0.0361 0.71464,0.45829 1.37486,1.11913 0.20825,0.20826 0.76655,0.88113 0.77035,1.71288 0.003,0.74251 -0.41714,1.27612 -0.46778,1.32929 -0.15698,0.17787 -0.72921,0.63299 -1.06153,0.67667 l -0.005,0.96468 c 0.41335,-0.081 1.10964,-0.35068 1.504,-0.74883 0.39625,-0.39942 0.72477,-0.87859 0.871,-1.48563 0.169,-0.69503 0.0468,-1.48817 -0.16965,-1.94583 -0.28611,-0.614 -0.78111,-1.19509 -1.40144,-1.69072 l -1.52172,-1.12989 -1.51729,1.13559 c -0.61843,0.49943 -1.1071,1.08241 -1.39258,1.69705 -0.21395,0.46019 -0.33422,1.25333 -0.16015,1.94772 0.15065,0.60451 0.48108,1.08369 0.87733,1.48121 0.39752,0.39625 1.09508,0.66211 1.50779,0.74123 l -0.009,-0.96468 c -0.33232,-0.0399 -0.90708,-0.495 -1.0647,-0.66971 -0.0506,-0.0525 -0.47094,-0.58488 -0.47094,-1.32738 -0.002,-0.83112 0.55513,-1.50716 0.75959,-1.71605 0.65705,-0.66654 1.31726,-1.09001 1.37043,-1.12736 0.0411,-0.0253 0.0804,-0.0709 0.10318,-0.0987 l 0,0 z"
               inkscape:connector-curvature="0"
               id="path18261" />
          </g>
        </g>
      </g>
    </g>
  </g>
</svg>
