<?xml version="1.0" encoding="UTF-8" standalone="no"?>
<!-- Created with Inkscape (http://www.inkscape.org/) -->

<svg
   xmlns:dc="http://purl.org/dc/elements/1.1/"
   xmlns:cc="http://creativecommons.org/ns#"
   xmlns:rdf="http://www.w3.org/1999/02/22-rdf-syntax-ns#"
   xmlns:svg="http://www.w3.org/2000/svg"
   xmlns="http://www.w3.org/2000/svg"
   xmlns:sodipodi="http://sodipodi.sourceforge.net/DTD/sodipodi-0.dtd"
   xmlns:inkscape="http://www.inkscape.org/namespaces/inkscape"
   width="21.648701mm"
   height="6.9731488mm"
   viewBox="0 0 76.707991 24.708009"
   id="svg3349"
   version="1.1"
   inkscape:version="0.91 r13725"
   sodipodi:docname="dine_historic_swim.svg">
  <defs
     id="defs3351" />
  <sodipodi:namedview
     id="base"
     pagecolor="#ffffff"
     bordercolor="#666666"
     borderopacity="1.0"
     inkscape:pageopacity="0.0"
     inkscape:pageshadow="2"
     inkscape:zoom="10"
     inkscape:cx="12.542242"
     inkscape:cy="15.663493"
     inkscape:document-units="px"
     inkscape:current-layer="layer1"
     showgrid="false"
     fit-margin-top="0"
     fit-margin-left="0"
     fit-margin-right="0"
     fit-margin-bottom="0"
     inkscape:window-width="1920"
     inkscape:window-height="1018"
     inkscape:window-x="-8"
     inkscape:window-y="-8"
     inkscape:window-maximized="1" />
  <metadata
     id="metadata3354">
    <rdf:RDF>
      <cc:Work
         rdf:about="">
        <dc:format>image/svg+xml</dc:format>
        <dc:type
           rdf:resource="http://purl.org/dc/dcmitype/StillImage" />
        <dc:title />
      </cc:Work>
    </rdf:RDF>
  </metadata>
  <g
     inkscape:label="Layer 1"
     inkscape:groupmode="layer"
     id="layer1"
     transform="translate(-99.290256,-421.48312)">
    <g
       id="g4155">
      <g
         transform="matrix(2.0000403,0,0,2.0000404,-156.53731,-465.36655)"
         id="g3476">
        <g
           transform="matrix(1.2500001,0,0,-1.2500001,83.103826,1656.8776)"
           id="g20619">
          <g
             transform="translate(37.0264,970.5689)"
             id="g7298">
            <path
               inkscape:connector-curvature="0"
               id="path7300"
               style="fill:#ffffff;fill-opacity:1;fill-rule:nonzero;stroke:none"
               d="m 0,0 c -0.54,0 -0.98,-0.44 -0.98,-0.981 l 0,-7.522 c 0,-0.54 0.44,-0.979 0.98,-0.979 l 7.521,0 c 0.541,0 0.981,0.439 0.981,0.979 l 0,7.522 C 8.502,-0.44 8.062,0 7.521,0 L 0,0 Z" />
          </g>
          <g
             transform="translate(44.5479,960.8863)"
             id="g7302">
            <path
               inkscape:connector-curvature="0"
               id="path7304"
               style="fill:#373535;fill-opacity:1;fill-rule:nonzero;stroke:none"
               d="m 0,0 c 0.652,0 1.181,0.528 1.181,1.18 l 0,7.522 C 1.181,9.354 0.652,9.883 0,9.883 l -7.521,0 c -0.653,0 -1.181,-0.529 -1.181,-1.181 l 0,-7.522 C -8.702,0.528 -8.174,0 -7.521,0 L 0,0 Z" />
          </g>
          <g
             transform="translate(40.3574,967.292)"
             id="g7306">
            <path
               inkscape:connector-curvature="0"
               id="path7308"
               style="fill:#ffffff;fill-opacity:1;fill-rule:nonzero;stroke:none"
               d="m 0,0 c 0,-0.261 -0.237,-0.539 -0.545,-0.539 l 0,-4.402 c 0,-0.624 -0.852,-0.624 -0.852,0 l 0,4.402 c -0.3,0 -0.561,0.231 -0.561,0.578 l 0,2.422 c 0,0.211 0.305,0.22 0.305,-0.008 l 0,-1.791 0.255,0 0.294,0 -0.023,0 0,1.805 c 0,0.202 0.285,0.21 0.285,-0.008 l 0,-1.797 0.545,0 0,1.805 C -0.297,2.666 0,2.674 0,2.459 L 0,0 Z" />
          </g>
          <g
             transform="translate(43.0283,969.1895)"
             id="g7310">
            <path
               inkscape:connector-curvature="0"
               id="path7312"
               style="fill:#ffffff;fill-opacity:1;fill-rule:nonzero;stroke:none"
               d="m 0,0 0,-6.836 c 0,-0.611 -0.854,-0.603 -0.854,0 l 0,2.711 -0.455,0 0,4.125 C -1.309,0.959 0,0.959 0,0" />
          </g>
        </g>
      </g>
      <g
         id="g3338"
         transform="matrix(1.9996358,0,0,2.0000422,-614.88597,-633.05309)">
        <path
           inkscape:connector-curvature="0"
           id="path6702"
           style="fill:#ffffff;fill-opacity:1;fill-rule:nonzero;stroke:none"
           d="m 371.63238,527.50622 c -0.6775,0 -1.22625,0.55126 -1.22625,1.2275 l 0,9.4025 c 0,0.67375 0.54875,1.2225 1.22625,1.2225 l 9.40125,0 c 0.67751,0 1.2275,-0.54875 1.2275,-1.2225 l 0,-9.4025 c 0,-0.67625 -0.54999,-1.2275 -1.2275,-1.2275 l -9.40125,0 z" />
        <path
           inkscape:connector-curvature="0"
           id="path6706"
           style="fill:#373535;fill-opacity:1;fill-rule:nonzero;stroke:none"
           d="m 381.03426,539.61072 c 0.815,0 1.4775,-0.65875 1.4775,-1.47499 l 0,-9.40125 c 0,-0.81625 -0.6625,-1.4775 -1.4775,-1.4775 l -9.40125,0 c -0.81625,0 -1.4775,0.66125 -1.4775,1.4775 l 0,9.40125 c 0,0.81625 0.66125,1.47499 1.4775,1.47499 l 9.40125,0 z" />
        <g
           transform="matrix(0.62019149,0,0,0.62019149,394.57533,-86.17466)"
           id="layer1_3_">
          <path
             style="fill:#ffffff"
             d="m -29.411,991.746 -6.095,4.064 12.19,0 -6.095,-4.064 z m -5.283,4.877 c -0.45,0 -0.813,0.362 -0.813,0.813 l 0,5.689 -1.424,2.438 c -0.121,0.207 -0.203,0.289 -0.203,0.405 0,0.406 0.515,0.406 0.813,0.406 l 13.815,0 c 0.29,0 0.814,0 0.814,-0.406 0,-0.119 -0.072,-0.178 -0.203,-0.405 l -1.423,-2.438 0,-5.689 c 0,-0.45 -0.362,-0.813 -0.813,-0.813 l -10.563,0 z m 1.626,1.627 c 0.449,0 0.738,0.367 0.812,0.813 l 0,4.877 -1.624,0 0,-1.626 0,-3.251 c -10e-4,-0.45 0.36,-0.813 0.812,-0.813 l 0,0 0,0 z m 3.657,0 c 0.45,0 0.82,0.361 0.813,0.813 l 0,3.251 0,1.626 -1.626,0 0,-1.626 0,-3.251 c 0,-0.45 0.363,-0.813 0.813,-0.813 l 0,0 z m 3.657,0 c 0.449,0 0.813,0.361 0.813,0.813 l 0,4.877 -1.626,0 0,-1.626 0,-3.251 c 0,-0.45 0.364,-0.813 0.813,-0.813 l 0,0 0,0 z"
             inkscape:connector-curvature="0"
             id="rect7645-6_2_" />
        </g>
      </g>
      <g
         id="g3339"
         transform="matrix(1.9996358,0,0,2.0000406,-588.88596,-633.05223)">
        <g
           transform="matrix(1.25,0,0,-1.25,324.66276,1248.4401)"
           id="g21507">
          <path
             d="m 37.5757,576.7471 c -0.542,0 -0.981,-0.441 -0.981,-0.982 l 0,-7.522 c 0,-0.539 0.439,-0.978 0.981,-0.978 l 7.521,0 c 0.542,0 0.982,0.439 0.982,0.978 l 0,7.522 c 0,0.541 -0.44,0.982 -0.982,0.982 l -7.521,0 z"
             style="fill:#ffffff;fill-opacity:1;fill-rule:nonzero;stroke:none"
             id="path6702-8"
             inkscape:connector-curvature="0" />
          <path
             d="m 45.0972,567.0635 c 0.652,0 1.182,0.527 1.182,1.18 l 0,7.521 c 0,0.653 -0.53,1.182 -1.182,1.182 l -7.521,0 c -0.653,0 -1.182,-0.529 -1.182,-1.182 l 0,-7.521 c 0,-0.653 0.529,-1.18 1.182,-1.18 l 7.521,0 z"
             style="fill:#373535;fill-opacity:1;fill-rule:nonzero;stroke:none"
             id="path6706-6"
             inkscape:connector-curvature="0" />
          <path
             d="m 45.3296,568.794 c -0.172,0 -0.336,0.039 -0.482,0.105 -0.151,0.069 -0.321,0.11 -0.498,0.11 -0.178,0 -0.348,-0.041 -0.499,-0.11 -0.146,-0.066 -0.31,-0.105 -0.482,-0.105 -0.172,0 -0.336,0.039 -0.482,0.105 -0.153,0.069 -0.323,0.11 -0.498,0.11 -0.178,0 -0.348,-0.041 -0.498,-0.11 -0.147,-0.066 -0.313,-0.105 -0.483,-0.105 -0.172,0 -0.336,0.039 -0.484,0.105 -0.151,0.069 -0.321,0.11 -0.496,0.11 -0.178,0 -0.348,-0.041 -0.498,-0.11 -0.147,-0.066 -0.313,-0.105 -0.485,-0.105 -0.17,0 -0.336,0.039 -0.482,0.105 -0.151,0.069 -0.32,0.11 -0.498,0.11 -0.176,0 -0.346,-0.041 -0.496,-0.11 -0.149,-0.066 -0.313,-0.105 -0.485,-0.105 l 0,0.725 c 0.172,0 0.336,0.039 0.485,0.103 0.15,0.07 0.32,0.111 0.496,0.111 0.178,0 0.347,-0.041 0.498,-0.111 0.146,-0.064 0.312,-0.103 0.482,-0.103 0.172,0 0.338,0.039 0.485,0.103 0.15,0.07 0.32,0.111 0.498,0.111 0.175,0 0.345,-0.041 0.496,-0.111 0.148,-0.064 0.312,-0.103 0.484,-0.103 0.17,0 0.336,0.039 0.483,0.103 0.15,0.07 0.32,0.111 0.498,0.111 0.175,0 0.345,-0.041 0.498,-0.111 0.146,-0.064 0.31,-0.103 0.482,-0.103 0.172,0 0.336,0.039 0.482,0.103 0.151,0.07 0.321,0.111 0.499,0.111 0.177,0 0.347,-0.041 0.498,-0.111 0.146,-0.064 0.31,-0.103 0.482,-0.103 l 0,-0.725 z"
             style="fill:#ffffff;fill-opacity:1;fill-rule:nonzero;stroke:none"
             id="path6710"
             inkscape:connector-curvature="0" />
          <path
             d="m 44.1929,570.8428 c 0.516,0 0.934,0.42 0.934,0.936 0,0.515 -0.418,0.933 -0.934,0.933 -0.516,0 -0.934,-0.418 -0.934,-0.933 0,-0.516 0.381,-0.936 0.934,-0.936"
             style="fill:#ffffff;fill-opacity:1;fill-rule:nonzero;stroke:none"
             id="path6714"
             inkscape:connector-curvature="0" />
          <path
             d="m 38.7573,570.3174 c 0.072,-0.017 0.141,-0.043 0.205,-0.072 0.147,-0.067 0.313,-0.106 0.482,-0.106 0.172,0 0.338,0.039 0.485,0.106 0.15,0.068 0.32,0.111 0.498,0.111 0.176,0 0.346,-0.043 0.496,-0.111 0.148,-0.067 0.313,-0.106 0.484,-0.106 0.17,0 0.336,0.039 0.483,0.106 0.15,0.068 0.32,0.111 0.498,0.111 0.176,0 0.346,-0.043 0.498,-0.111 0.146,-0.067 0.31,-0.106 0.482,-0.106 0.125,0 0.246,0.022 0.36,0.057 l -1.557,2.811 1.811,0.33 c 0.265,0.05 0.459,0.259 0.459,0.527 0,0.295 -0.241,0.531 -0.534,0.531 -0.021,0 -0.041,0 -0.06,-0.002 l -2.797,-0.51 c -0.197,-0.044 -0.457,-0.332 -0.309,-0.685 0.008,-0.02 0.016,-0.037 0.024,-0.057 l 0.73,-1.318 -2.738,-1.506 z"
             style="fill:#ffffff;fill-opacity:1;fill-rule:nonzero;stroke:none"
             id="path6718"
             inkscape:connector-curvature="0" />
        </g>
      </g>
    </g>
  </g>
</svg>
