<?xml version="1.0" encoding="UTF-8" standalone="no"?>
<!-- Created with Inkscape (http://www.inkscape.org/) -->

<svg
   xmlns:dc="http://purl.org/dc/elements/1.1/"
   xmlns:cc="http://creativecommons.org/ns#"
   xmlns:rdf="http://www.w3.org/1999/02/22-rdf-syntax-ns#"
   xmlns:svg="http://www.w3.org/2000/svg"
   xmlns="http://www.w3.org/2000/svg"
   xmlns:sodipodi="http://sodipodi.sourceforge.net/DTD/sodipodi-0.dtd"
   xmlns:inkscape="http://www.inkscape.org/namespaces/inkscape"
   width="14.310925mm"
   height="6.9731469mm"
   viewBox="0 0 50.707999 24.708003"
   id="svg3349"
   version="1.1"
   inkscape:version="0.91 r13725"
   sodipodi:docname="dine_golf.svg">
  <defs
     id="defs3351" />
  <sodipodi:namedview
     id="base"
     pagecolor="#ffffff"
     bordercolor="#666666"
     borderopacity="1.0"
     inkscape:pageopacity="0.0"
     inkscape:pageshadow="2"
     inkscape:zoom="10"
     inkscape:cx="26.237801"
     inkscape:cy="5.7505926"
     inkscape:document-units="px"
     inkscape:current-layer="layer1"
     showgrid="false"
     fit-margin-top="0"
     fit-margin-left="0"
     fit-margin-right="0"
     fit-margin-bottom="0"
     inkscape:window-width="1920"
     inkscape:window-height="1018"
     inkscape:window-x="-8"
     inkscape:window-y="-8"
     inkscape:window-maximized="1" />
  <metadata
     id="metadata3354">
    <rdf:RDF>
      <cc:Work
         rdf:about="">
        <dc:format>image/svg+xml</dc:format>
        <dc:type
           rdf:resource="http://purl.org/dc/dcmitype/StillImage" />
        <dc:title />
      </cc:Work>
    </rdf:RDF>
  </metadata>
  <g
     inkscape:label="Layer 1"
     inkscape:groupmode="layer"
     id="layer1"
     transform="translate(-111.6961,-430.95525)">
    <g
       id="g4156">
      <g
         transform="translate(-13.573514,0.00248051)"
         id="g3375">
        <g
           id="g3352"
           transform="translate(-6.0000003,0)">
          <g
             transform="matrix(2.0000404,0,0,2.0000404,-98.55796,-455.8969)"
             id="g3476">
            <g
               transform="matrix(1.2500001,0,0,-1.2500001,83.103826,1656.8776)"
               id="g20619">
              <g
                 transform="translate(37.0264,970.5689)"
                 id="g7298">
                <path
                   inkscape:connector-curvature="0"
                   id="path7300"
                   style="fill:#ffffff;fill-opacity:1;fill-rule:nonzero;stroke:none"
                   d="m 0,0 c -0.54,0 -0.98,-0.44 -0.98,-0.981 l 0,-7.522 c 0,-0.54 0.44,-0.979 0.98,-0.979 l 7.521,0 c 0.541,0 0.981,0.439 0.981,0.979 l 0,7.522 C 8.502,-0.44 8.062,0 7.521,0 L 0,0 Z" />
              </g>
              <g
                 transform="translate(44.5479,960.8863)"
                 id="g7302">
                <path
                   inkscape:connector-curvature="0"
                   id="path7304"
                   style="fill:#373535;fill-opacity:1;fill-rule:nonzero;stroke:none"
                   d="m 0,0 c 0.652,0 1.181,0.528 1.181,1.18 l 0,7.522 C 1.181,9.354 0.652,9.883 0,9.883 l -7.521,0 c -0.653,0 -1.181,-0.529 -1.181,-1.181 l 0,-7.522 C -8.702,0.528 -8.174,0 -7.521,0 L 0,0 Z" />
              </g>
              <g
                 transform="translate(40.3574,967.292)"
                 id="g7306">
                <path
                   inkscape:connector-curvature="0"
                   id="path7308"
                   style="fill:#ffffff;fill-opacity:1;fill-rule:nonzero;stroke:none"
                   d="m 0,0 c 0,-0.261 -0.237,-0.539 -0.545,-0.539 l 0,-4.402 c 0,-0.624 -0.852,-0.624 -0.852,0 l 0,4.402 c -0.3,0 -0.561,0.231 -0.561,0.578 l 0,2.422 c 0,0.211 0.305,0.22 0.305,-0.008 l 0,-1.791 0.255,0 0.294,0 -0.023,0 0,1.805 c 0,0.202 0.285,0.21 0.285,-0.008 l 0,-1.797 0.545,0 0,1.805 C -0.297,2.666 0,2.674 0,2.459 L 0,0 Z" />
              </g>
              <g
                 transform="translate(43.0283,969.1895)"
                 id="g7310">
                <path
                   inkscape:connector-curvature="0"
                   id="path7312"
                   style="fill:#ffffff;fill-opacity:1;fill-rule:nonzero;stroke:none"
                   d="m 0,0 0,-6.836 c 0,-0.611 -0.854,-0.603 -0.854,0 l 0,2.711 -0.455,0 0,4.125 C -1.309,0.959 0,0.959 0,0" />
              </g>
            </g>
          </g>
        </g>
      </g>
      <g
         transform="translate(-12.42649,-0.00248011)"
         id="g3388">
        <g
           id="g3364">
          <g
             id="g20779"
             transform="matrix(2.4985339,0,0,-2.4980287,34.576885,2760.8039)">
            <g
               id="g6804"
               transform="translate(37.0703,932.4737)">
              <path
                 d="m 0,0 c -0.569,0 -1.031,-0.463 -1.031,-1.033 l 0,-7.425 c 0,-0.569 0.462,-1.032 1.031,-1.032 l 7.426,0 c 0.569,0 1.032,0.463 1.032,1.032 l 0,7.425 C 8.458,-0.463 7.995,0 7.426,0 L 0,0 Z"
                 style="fill:#ffffff;fill-opacity:1;fill-rule:nonzero;stroke:none"
                 id="path6806"
                 inkscape:connector-curvature="0" />
            </g>
            <g
               id="g6808"
               transform="translate(37.0703,932.6739)">
              <path
                 d="m 0,0 c -0.679,0 -1.231,-0.555 -1.231,-1.233 l 0,-7.425 c 0,-0.68 0.552,-1.233 1.231,-1.233 l 7.426,0 c 0.679,0 1.232,0.553 1.232,1.233 l 0,7.425 C 8.658,-0.555 8.105,0 7.426,0 L 0,0 Z"
                 style="fill:#373535;fill-opacity:1;fill-rule:nonzero;stroke:none"
                 id="path6810"
                 inkscape:connector-curvature="0" />
            </g>
            <g
               id="g6812"
               transform="translate(40.1758,930.5811)">
              <path
                 d="m 0,0 c -0.357,0 -0.646,-0.285 -0.646,-0.637 0,-0.352 0.289,-0.637 0.646,-0.637 0.355,0 0.645,0.285 0.645,0.637 C 0.645,-0.285 0.355,0 0,0"
                 style="fill:#ffffff;fill-opacity:1;fill-rule:nonzero;stroke:none"
                 id="path6814"
                 inkscape:connector-curvature="0" />
            </g>
            <g
               id="g6816"
               transform="translate(43.4502,929.3213)">
              <path
                 d="M 0,0 C -0.024,0.138 -0.137,0.216 -0.143,0.221 L -3.938,2.722 -4.29,2.211 c -0.065,-0.101 -0.037,-0.234 0.064,-0.3 0.1,-0.066 0.234,-0.039 0.299,0.062 L -3.721,2.268 -0.64,0.234 -3.164,-0.22 c -0.179,-0.03 -0.308,-0.209 -0.268,-0.384 l 0.549,-2.123 -1.776,-2.666 c -0.107,-0.181 -0.042,-0.415 0.141,-0.519 0.186,-0.106 0.421,-0.041 0.528,0.141 0,0 1.853,2.787 1.86,2.804 0,0 0.096,-0.387 0.096,-0.388 l -0.279,-2.091 c -0.035,-0.208 0.107,-0.403 0.317,-0.438 0.21,-0.035 0.409,0.105 0.444,0.312 l 0.287,2.15 c 0.009,0.055 -0.002,0.176 -0.014,0.229 l -0.634,2.518 1.648,0.297 C -0.088,-0.347 0.031,-0.177 0,0"
                 style="fill:#ffffff;fill-opacity:1;fill-rule:nonzero;stroke:none"
                 id="path6818"
                 inkscape:connector-curvature="0" />
            </g>
          </g>
        </g>
      </g>
    </g>
  </g>
</svg>
