<?xml version="1.0" encoding="UTF-8" standalone="no"?>
<!-- Created with Inkscape (http://www.inkscape.org/) -->

<svg
   xmlns:dc="http://purl.org/dc/elements/1.1/"
   xmlns:cc="http://creativecommons.org/ns#"
   xmlns:rdf="http://www.w3.org/1999/02/22-rdf-syntax-ns#"
   xmlns:svg="http://www.w3.org/2000/svg"
   xmlns="http://www.w3.org/2000/svg"
   xmlns:sodipodi="http://sodipodi.sourceforge.net/DTD/sodipodi-0.dtd"
   xmlns:inkscape="http://www.inkscape.org/namespaces/inkscape"
   width="14.310924mm"
   height="6.9731579mm"
   viewBox="0 0 50.707996 24.708041"
   id="svg3349"
   version="1.1"
   inkscape:version="0.91 r13725"
   sodipodi:docname="fish_fitness.svg">
  <defs
     id="defs3351" />
  <sodipodi:namedview
     id="base"
     pagecolor="#ffffff"
     bordercolor="#666666"
     borderopacity="1.0"
     inkscape:pageopacity="0.0"
     inkscape:pageshadow="2"
     inkscape:zoom="10"
     inkscape:cx="9.4383817"
     inkscape:cy="4.3775551"
     inkscape:document-units="px"
     inkscape:current-layer="layer1"
     showgrid="false"
     fit-margin-top="0"
     fit-margin-left="0"
     fit-margin-right="0"
     fit-margin-bottom="0"
     inkscape:window-width="1603"
     inkscape:window-height="927"
     inkscape:window-x="72"
     inkscape:window-y="49"
     inkscape:window-maximized="0" />
  <metadata
     id="metadata3354">
    <rdf:RDF>
      <cc:Work
         rdf:about="">
        <dc:format>image/svg+xml</dc:format>
        <dc:type
           rdf:resource="http://purl.org/dc/dcmitype/StillImage" />
        <dc:title></dc:title>
      </cc:Work>
    </rdf:RDF>
  </metadata>
  <g
     inkscape:label="Layer 1"
     inkscape:groupmode="layer"
     id="layer1"
     transform="translate(-117.30436,-423.06251)">
    <g
       id="g4144">
      <g
         id="g20564"
         transform="matrix(2.4995449,0,0,-2.5000507,26.282615,2882.285)">
        <g
           transform="translate(0.57142856,0.20003093)"
           id="g3549">
          <path
             d="m 37.0254,983.2691 c -0.542,0 -0.981,-0.44 -0.981,-0.981 l 0,-7.521 c 0,-0.541 0.439,-0.981 0.981,-0.981 l 7.521,0 c 0.542,0 0.982,0.44 0.982,0.981 l 0,7.521 c 0,0.541 -0.44,0.981 -0.982,0.981 l -7.521,0 z"
             style="fill:#ffffff;fill-opacity:1;fill-rule:nonzero;stroke:none"
             id="path6634"
             inkscape:connector-curvature="0" />
          <path
             d="m 44.5469,973.586 c 0.652,0 1.182,0.528 1.182,1.181 l 0,7.521 c 0,0.652 -0.53,1.181 -1.182,1.181 l -7.521,0 c -0.653,0 -1.182,-0.529 -1.182,-1.181 l 0,-7.521 c 0,-0.653 0.529,-1.181 1.182,-1.181 l 7.521,0 z"
             style="fill:#373535;fill-opacity:1;fill-rule:nonzero;stroke:none"
             id="path6638"
             inkscape:connector-curvature="0" />
          <path
             d="m 44.7227,974.9708 c -1.904,-0.028 -3.895,0.335 -5.418,1.559 -0.01,0.01 -0.014,0.021 -0.014,0.035 0,0.028 0.024,0.051 0.051,0.051 l 1.502,-0.002 c 0.072,0 0.133,0.06 0.133,0.133 0,0.055 -0.025,0.093 -0.084,0.122 l -1.357,0.648 c -0.026,0.016 -0.043,0.044 -0.043,0.076 0,0.025 0.009,0.047 0.025,0.063 0,0 1.654,1.462 5.205,1.43 l 0,-4.115 z m -3.184,2.316 c 0.178,0 0.321,0.144 0.321,0.322 0,0.177 -0.143,0.321 -0.321,0.321 -0.177,0 -0.322,-0.144 -0.322,-0.321 0,-0.178 0.145,-0.322 0.322,-0.322"
             style="fill:#ffffff;fill-opacity:1;fill-rule:nonzero;stroke:none"
             id="path6642"
             inkscape:connector-curvature="0" />
          <path
             d="m 43.9976,982.2598 c -1.177,-0.013 -2.328,-0.515 -3.619,-1.574 -0.048,0.014 -0.154,0.042 -0.154,0.042 -0.205,0 -0.372,-0.166 -0.372,-0.371 0,0 0.015,-0.069 0.023,-0.112 -0.039,-0.037 -1.043,-0.979 -1.043,-0.979 l -0.887,-0.836 c -0.084,-0.076 -0.191,-0.114 -0.304,-0.109 -0.112,0.005 -0.215,0.054 -0.29,0.137 -0.073,0.08 -0.108,0.181 -0.108,0.283 0,0.114 0.046,0.228 0.136,0.31 0,0 0.067,0.037 0.117,0.066 0.011,-0.076 0.043,-0.308 0.043,-0.308 l 0.723,0.922 -0.798,-0.272 c -0.211,-0.072 -0.297,-0.178 -0.3,-0.183 -0.293,-0.264 -0.316,-0.728 -0.045,-1.028 0.271,-0.299 0.736,-0.321 1.035,-0.049 l 0.008,0.009 0.841,0.801 c 0,0 1.039,0.983 1.073,1.015 0.05,-0.013 0.148,-0.038 0.148,-0.038 0.204,0 0.37,0.166 0.37,0.371 0,0 -0.01,0.054 -0.017,0.093 1.249,1.028 2.341,1.515 3.435,1.528 0.224,0.002 0.404,-0.028 0.699,-0.09 l 0.061,-0.014 0,0.293 -0.04,0.008 c -0.304,0.065 -0.504,0.088 -0.735,0.085"
             style="fill:#ffffff;fill-opacity:1;fill-rule:nonzero;stroke:none"
             id="path6646"
             inkscape:connector-curvature="0" />
        </g>
      </g>
      <g
         id="g3441"
         transform="matrix(1.9998399,0,0,2.0000422,-603.8991,-638.57497)">
        <path
           inkscape:connector-curvature="0"
           id="path6578-3"
           style="fill:#373535;fill-opacity:1;fill-rule:nonzero;stroke:none"
           d="m 384.51038,543.16128 c 0.815,0 1.47625,-0.65875 1.47625,-1.47499 l 0,-9.40125 c 0,-0.81625 -0.66125,-1.4775 -1.47625,-1.4775 l -9.4025,0 c -0.815,0 -1.47624,0.66125 -1.47624,1.4775 l 0,9.40125 c 0,0.81625 0.66124,1.47499 1.47624,1.47499 l 9.4025,0 z" />
        <g
           id="g1393"
           transform="matrix(0.61380975,0,0,0.61380975,265.27684,450.78824)"
           style="fill:#ffffff">
          <path
             style="fill:#ffffff"
             inkscape:connector-curvature="0"
             id="path1395"
             d="m 190.566,132.24 0,0.94 -1.559,0 c 0,0 -0.044,-0.236 -0.182,-0.372 -0.121,-0.119 -0.391,-0.146 -0.503,0.009 -0.045,0.063 -0.024,0.157 -0.056,0.306 l 0.003,0.058 -3.454,0 0.003,-0.058 c -0.031,-0.148 -0.011,-0.243 -0.056,-0.306 -0.112,-0.155 -0.382,-0.128 -0.503,-0.009 -0.138,0.136 -0.182,0.372 -0.182,0.372 l -1.454,0 0,-0.94 -1.163,0 0,16.675 1.163,0 0,-15.412 1.428,0 -0.122,1.508 c -0.147,2.152 1.274,3.043 1.274,3.043 l 0.035,0 0,3.748 0,4.255 c 0,0.336 0.271,0.607 0.605,0.607 0.334,0 0.606,-0.271 0.606,-0.607 l 0,-4.255 0.217,0 0,4.255 c 0,0.336 0.272,0.607 0.606,0.607 0.336,0 0.607,-0.271 0.607,-0.607 l 0,-4.255 0,-3.748 c 0,0 1.422,-0.891 1.272,-3.043 l -0.121,-1.508 1.532,0 0,15.412 1.163,0 0,-16.675 -1.159,0 z m -2.199,2.763 c 0,0 0.146,1.319 -0.77,2.284 l -2.108,0 c -0.916,-0.965 -0.769,-2.284 -0.769,-2.284 l 0.078,-1.5 3.488,0 0.081,1.5 z" />
          <ellipse
             style="fill:#ffffff"
             id="ellipse1397"
             ry="1.101"
             rx="1.092"
             cy="135.741"
             cx="186.53" />
        </g>
      </g>
    </g>
  </g>
</svg>
