<?xml version="1.0" encoding="UTF-8" standalone="no"?>
<!-- Created with Inkscape (http://www.inkscape.org/) -->

<svg
   xmlns:dc="http://purl.org/dc/elements/1.1/"
   xmlns:cc="http://creativecommons.org/ns#"
   xmlns:rdf="http://www.w3.org/1999/02/22-rdf-syntax-ns#"
   xmlns:svg="http://www.w3.org/2000/svg"
   xmlns="http://www.w3.org/2000/svg"
   xmlns:sodipodi="http://sodipodi.sourceforge.net/DTD/sodipodi-0.dtd"
   xmlns:inkscape="http://www.inkscape.org/namespaces/inkscape"
   width="7.1864619mm"
   height="3.4865129mm"
   viewBox="0 0 25.463841 12.353786"
   id="svg3349"
   version="1.1"
   inkscape:version="0.91 r13725"
   sodipodi:docname="fish_historic.svg">
  <defs
     id="defs3351" />
  <sodipodi:namedview
     id="base"
     pagecolor="#ffffff"
     bordercolor="#666666"
     borderopacity="1.0"
     inkscape:pageopacity="0.0"
     inkscape:pageshadow="2"
     inkscape:zoom="11.2"
     inkscape:cx="13.215781"
     inkscape:cy="13.339379"
     inkscape:document-units="px"
     inkscape:current-layer="layer1"
     showgrid="false"
     fit-margin-top="0"
     fit-margin-left="0"
     fit-margin-right="0"
     fit-margin-bottom="0"
     inkscape:window-width="730"
     inkscape:window-height="701"
     inkscape:window-x="72"
     inkscape:window-y="49"
     inkscape:window-maximized="0" />
  <metadata
     id="metadata3354">
    <rdf:RDF>
      <cc:Work
         rdf:about="">
        <dc:format>image/svg+xml</dc:format>
        <dc:type
           rdf:resource="http://purl.org/dc/dcmitype/StillImage" />
        <dc:title></dc:title>
      </cc:Work>
    </rdf:RDF>
  </metadata>
  <g
     inkscape:label="Layer 1"
     inkscape:groupmode="layer"
     id="layer1"
     transform="translate(-128.46232,-443.15601)">
    <g
       transform="matrix(1.2500001,0,0,-1.2500001,82.943155,1672.7424)"
       id="g20564">
      <g
         id="g3549"
         transform="translate(0.57142856,0.20003093)">
        <path
           inkscape:connector-curvature="0"
           id="path6634"
           style="fill:#ffffff;fill-opacity:1;fill-rule:nonzero;stroke:none"
           d="m 37.0254,983.2691 c -0.542,0 -0.981,-0.44 -0.981,-0.981 l 0,-7.521 c 0,-0.541 0.439,-0.981 0.981,-0.981 l 7.521,0 c 0.542,0 0.982,0.44 0.982,0.981 l 0,7.521 c 0,0.541 -0.44,0.981 -0.982,0.981 l -7.521,0 z" />
        <path
           inkscape:connector-curvature="0"
           id="path6638"
           style="fill:#373535;fill-opacity:1;fill-rule:nonzero;stroke:none"
           d="m 44.5469,973.586 c 0.652,0 1.182,0.528 1.182,1.181 l 0,7.521 c 0,0.652 -0.53,1.181 -1.182,1.181 l -7.521,0 c -0.653,0 -1.182,-0.529 -1.182,-1.181 l 0,-7.521 c 0,-0.653 0.529,-1.181 1.182,-1.181 l 7.521,0 z" />
        <path
           inkscape:connector-curvature="0"
           id="path6642"
           style="fill:#ffffff;fill-opacity:1;fill-rule:nonzero;stroke:none"
           d="m 44.7227,974.9708 c -1.904,-0.028 -3.895,0.335 -5.418,1.559 -0.01,0.01 -0.014,0.021 -0.014,0.035 0,0.028 0.024,0.051 0.051,0.051 l 1.502,-0.002 c 0.072,0 0.133,0.06 0.133,0.133 0,0.055 -0.025,0.093 -0.084,0.122 l -1.357,0.648 c -0.026,0.016 -0.043,0.044 -0.043,0.076 0,0.025 0.009,0.047 0.025,0.063 0,0 1.654,1.462 5.205,1.43 l 0,-4.115 z m -3.184,2.316 c 0.178,0 0.321,0.144 0.321,0.322 0,0.177 -0.143,0.321 -0.321,0.321 -0.177,0 -0.322,-0.144 -0.322,-0.321 0,-0.178 0.145,-0.322 0.322,-0.322" />
        <path
           inkscape:connector-curvature="0"
           id="path6646"
           style="fill:#ffffff;fill-opacity:1;fill-rule:nonzero;stroke:none"
           d="m 43.9976,982.2598 c -1.177,-0.013 -2.328,-0.515 -3.619,-1.574 -0.048,0.014 -0.154,0.042 -0.154,0.042 -0.205,0 -0.372,-0.166 -0.372,-0.371 0,0 0.015,-0.069 0.023,-0.112 -0.039,-0.037 -1.043,-0.979 -1.043,-0.979 l -0.887,-0.836 c -0.084,-0.076 -0.191,-0.114 -0.304,-0.109 -0.112,0.005 -0.215,0.054 -0.29,0.137 -0.073,0.08 -0.108,0.181 -0.108,0.283 0,0.114 0.046,0.228 0.136,0.31 0,0 0.067,0.037 0.117,0.066 0.011,-0.076 0.043,-0.308 0.043,-0.308 l 0.723,0.922 -0.798,-0.272 c -0.211,-0.072 -0.297,-0.178 -0.3,-0.183 -0.293,-0.264 -0.316,-0.728 -0.045,-1.028 0.271,-0.299 0.736,-0.321 1.035,-0.049 l 0.008,0.009 0.841,0.801 c 0,0 1.039,0.983 1.073,1.015 0.05,-0.013 0.148,-0.038 0.148,-0.038 0.204,0 0.37,0.166 0.37,0.371 0,0 -0.01,0.054 -0.017,0.093 1.249,1.028 2.341,1.515 3.435,1.528 0.224,0.002 0.404,-0.028 0.699,-0.09 l 0.061,-0.014 0,0.293 -0.04,0.008 c -0.304,0.065 -0.504,0.088 -0.735,0.085" />
      </g>
    </g>
    <g
       transform="translate(-228.5856,-84.100921)"
       id="g3338">
      <path
         d="m 371.63238,527.50622 c -0.6775,0 -1.22625,0.55126 -1.22625,1.2275 l 0,9.4025 c 0,0.67375 0.54875,1.2225 1.22625,1.2225 l 9.40125,0 c 0.67751,0 1.2275,-0.54875 1.2275,-1.2225 l 0,-9.4025 c 0,-0.67625 -0.54999,-1.2275 -1.2275,-1.2275 l -9.40125,0 z"
         style="fill:#ffffff;fill-opacity:1;fill-rule:nonzero;stroke:none"
         id="path6702"
         inkscape:connector-curvature="0" />
      <path
         d="m 381.03426,539.61072 c 0.815,0 1.4775,-0.65875 1.4775,-1.47499 l 0,-9.40125 c 0,-0.81625 -0.6625,-1.4775 -1.4775,-1.4775 l -9.40125,0 c -0.81625,0 -1.4775,0.66125 -1.4775,1.4775 l 0,9.40125 c 0,0.81625 0.66125,1.47499 1.4775,1.47499 l 9.40125,0 z"
         style="fill:#373535;fill-opacity:1;fill-rule:nonzero;stroke:none"
         id="path6706"
         inkscape:connector-curvature="0" />
      <g
         id="layer1_3_"
         transform="matrix(0.62019149,0,0,0.62019149,394.57533,-86.17466)">
        <path
           id="rect7645-6_2_"
           inkscape:connector-curvature="0"
           d="m -29.411,991.746 -6.095,4.064 12.19,0 -6.095,-4.064 z m -5.283,4.877 c -0.45,0 -0.813,0.362 -0.813,0.813 l 0,5.689 -1.424,2.438 c -0.121,0.207 -0.203,0.289 -0.203,0.405 0,0.406 0.515,0.406 0.813,0.406 l 13.815,0 c 0.29,0 0.814,0 0.814,-0.406 0,-0.119 -0.072,-0.178 -0.203,-0.405 l -1.423,-2.438 0,-5.689 c 0,-0.45 -0.362,-0.813 -0.813,-0.813 l -10.563,0 z m 1.626,1.627 c 0.449,0 0.738,0.367 0.812,0.813 l 0,4.877 -1.624,0 0,-1.626 0,-3.251 c -10e-4,-0.45 0.36,-0.813 0.812,-0.813 l 0,0 0,0 z m 3.657,0 c 0.45,0 0.82,0.361 0.813,0.813 l 0,3.251 0,1.626 -1.626,0 0,-1.626 0,-3.251 c 0,-0.45 0.363,-0.813 0.813,-0.813 l 0,0 z m 3.657,0 c 0.449,0 0.813,0.361 0.813,0.813 l 0,4.877 -1.626,0 0,-1.626 0,-3.251 c 0,-0.45 0.364,-0.813 0.813,-0.813 l 0,0 0,0 z"
           style="fill:#ffffff" />
      </g>
    </g>
  </g>
</svg>
