<?xml version="1.0" encoding="UTF-8" standalone="no"?>
<!-- Created with Inkscape (http://www.inkscape.org/) -->

<svg
   xmlns:dc="http://purl.org/dc/elements/1.1/"
   xmlns:cc="http://creativecommons.org/ns#"
   xmlns:rdf="http://www.w3.org/1999/02/22-rdf-syntax-ns#"
   xmlns:svg="http://www.w3.org/2000/svg"
   xmlns="http://www.w3.org/2000/svg"
   xmlns:sodipodi="http://sodipodi.sourceforge.net/DTD/sodipodi-0.dtd"
   xmlns:inkscape="http://www.inkscape.org/namespaces/inkscape"
   width="14.310925mm"
   height="6.9731536mm"
   viewBox="0 0 50.708002 24.708026"
   id="svg3349"
   version="1.1"
   inkscape:version="0.91 r13725"
   sodipodi:docname="fitness_picnic.svg">
  <defs
     id="defs3351" />
  <sodipodi:namedview
     id="base"
     pagecolor="#ffffff"
     bordercolor="#666666"
     borderopacity="1.0"
     inkscape:pageopacity="0.0"
     inkscape:pageshadow="2"
     inkscape:zoom="10"
     inkscape:cx="38.098478"
     inkscape:cy="20.757393"
     inkscape:document-units="px"
     inkscape:current-layer="layer1"
     showgrid="false"
     fit-margin-top="0"
     fit-margin-left="0"
     fit-margin-right="0"
     fit-margin-bottom="0"
     inkscape:window-width="1342"
     inkscape:window-height="810"
     inkscape:window-x="72"
     inkscape:window-y="49"
     inkscape:window-maximized="0" />
  <metadata
     id="metadata3354">
    <rdf:RDF>
      <cc:Work
         rdf:about="">
        <dc:format>image/svg+xml</dc:format>
        <dc:type
           rdf:resource="http://purl.org/dc/dcmitype/StillImage" />
        <dc:title></dc:title>
      </cc:Work>
    </rdf:RDF>
  </metadata>
  <g
     inkscape:label="Layer 1"
     inkscape:groupmode="layer"
     id="layer1"
     transform="translate(-102.30842,-430.64901)">
    <g
       id="g4142">
      <g
         id="g3441"
         transform="matrix(1.9998397,0,0,2.0000421,-618.89496,-630.98842)">
        <path
           inkscape:connector-curvature="0"
           id="path6578-3"
           style="fill:#373535;fill-opacity:1;fill-rule:nonzero;stroke:none"
           d="m 384.51038,543.16128 c 0.815,0 1.47625,-0.65875 1.47625,-1.47499 l 0,-9.40125 c 0,-0.81625 -0.66125,-1.4775 -1.47625,-1.4775 l -9.4025,0 c -0.815,0 -1.47624,0.66125 -1.47624,1.4775 l 0,9.40125 c 0,0.81625 0.66124,1.47499 1.47624,1.47499 l 9.4025,0 z" />
        <g
           id="g1393"
           transform="matrix(0.61380975,0,0,0.61380975,265.27684,450.78824)"
           style="fill:#ffffff">
          <path
             style="fill:#ffffff"
             inkscape:connector-curvature="0"
             id="path1395"
             d="m 190.566,132.24 0,0.94 -1.559,0 c 0,0 -0.044,-0.236 -0.182,-0.372 -0.121,-0.119 -0.391,-0.146 -0.503,0.009 -0.045,0.063 -0.024,0.157 -0.056,0.306 l 0.003,0.058 -3.454,0 0.003,-0.058 c -0.031,-0.148 -0.011,-0.243 -0.056,-0.306 -0.112,-0.155 -0.382,-0.128 -0.503,-0.009 -0.138,0.136 -0.182,0.372 -0.182,0.372 l -1.454,0 0,-0.94 -1.163,0 0,16.675 1.163,0 0,-15.412 1.428,0 -0.122,1.508 c -0.147,2.152 1.274,3.043 1.274,3.043 l 0.035,0 0,3.748 0,4.255 c 0,0.336 0.271,0.607 0.605,0.607 0.334,0 0.606,-0.271 0.606,-0.607 l 0,-4.255 0.217,0 0,4.255 c 0,0.336 0.272,0.607 0.606,0.607 0.336,0 0.607,-0.271 0.607,-0.607 l 0,-4.255 0,-3.748 c 0,0 1.422,-0.891 1.272,-3.043 l -0.121,-1.508 1.532,0 0,15.412 1.163,0 0,-16.675 -1.159,0 z m -2.199,2.763 c 0,0 0.146,1.319 -0.77,2.284 l -2.108,0 c -0.916,-0.965 -0.769,-2.284 -0.769,-2.284 l 0.078,-1.5 3.488,0 0.081,1.5 z" />
          <ellipse
             style="fill:#ffffff"
             id="ellipse1397"
             ry="1.101"
             rx="1.092"
             cy="135.741"
             cx="186.53" />
        </g>
      </g>
      <g
         id="g21211"
         transform="matrix(2.4997977,0,0,-2.5000506,11.325536,2412.8039)">
        <path
           inkscape:connector-curvature="0"
           id="path6574"
           style="fill:#ffffff;fill-opacity:1;fill-rule:nonzero;stroke:none"
           d="m 37.5767,792.6465 c -0.54,0 -0.98,-0.441 -0.98,-0.982 l 0,-7.522 c 0,-0.539 0.44,-0.978 0.98,-0.978 l 7.522,0 c 0.541,0 0.981,0.439 0.981,0.978 l 0,7.522 c 0,0.541 -0.44,0.982 -0.981,0.982 l -7.522,0 z" />
        <path
           inkscape:connector-curvature="0"
           id="path6578"
           style="fill:#373535;fill-opacity:1;fill-rule:nonzero;stroke:none"
           d="m 45.0991,782.9629 c 0.652,0 1.181,0.527 1.181,1.18 l 0,7.521 c 0,0.653 -0.529,1.182 -1.181,1.182 l -7.522,0 c -0.652,0 -1.181,-0.529 -1.181,-1.182 l 0,-7.521 c 0,-0.653 0.529,-1.18 1.181,-1.18 l 7.522,0 z" />
        <path
           inkscape:connector-curvature="0"
           id="path6582"
           style="fill:#ffffff;fill-opacity:1;fill-rule:nonzero;stroke:none"
           d="m 38.6782,790.004 0,0.728 5.291,0 0,-0.728 -1.336,0 0.796,-1.971 1.971,0 0,-0.728 -1.674,0 0.931,-2.295 -0.904,0 -0.931,2.295 -3.01,0 -0.925,-2.295 -0.904,0 0.924,2.295 -1.66,0 0,0.728 1.957,0 0.797,1.971 -1.323,0 z m 1.35,-1.971 2.416,0 -0.796,1.971 -0.824,0 -0.796,-1.971 z" />
      </g>
    </g>
  </g>
</svg>
