<?xml version="1.0" encoding="UTF-8" standalone="no"?>
<!-- Created with Inkscape (http://www.inkscape.org/) -->

<svg
   xmlns:dc="http://purl.org/dc/elements/1.1/"
   xmlns:cc="http://creativecommons.org/ns#"
   xmlns:rdf="http://www.w3.org/1999/02/22-rdf-syntax-ns#"
   xmlns:svg="http://www.w3.org/2000/svg"
   xmlns="http://www.w3.org/2000/svg"
   xmlns:sodipodi="http://sodipodi.sourceforge.net/DTD/sodipodi-0.dtd"
   xmlns:inkscape="http://www.inkscape.org/namespaces/inkscape"
   width="7.094965mm"
   height="3.4864998mm"
   viewBox="0 0 25.139639 12.35374"
   id="svg3349"
   version="1.1"
   inkscape:version="0.91 r13725"
   sodipodi:docname="geologic_visitorcenter.svg">
  <defs
     id="defs3351" />
  <sodipodi:namedview
     id="base"
     pagecolor="#ffffff"
     bordercolor="#666666"
     borderopacity="1.0"
     inkscape:pageopacity="0.0"
     inkscape:pageshadow="2"
     inkscape:zoom="5.6"
     inkscape:cx="8.4454866"
     inkscape:cy="8.0679012"
     inkscape:document-units="px"
     inkscape:current-layer="g2989"
     showgrid="false"
     fit-margin-top="0"
     fit-margin-left="0"
     fit-margin-right="0"
     fit-margin-bottom="0"
     inkscape:window-width="638"
     inkscape:window-height="405"
     inkscape:window-x="72"
     inkscape:window-y="49"
     inkscape:window-maximized="0" />
  <metadata
     id="metadata3354">
    <rdf:RDF>
      <cc:Work
         rdf:about="">
        <dc:format>image/svg+xml</dc:format>
        <dc:type
           rdf:resource="http://purl.org/dc/dcmitype/StillImage" />
        <dc:title></dc:title>
      </cc:Work>
    </rdf:RDF>
  </metadata>
  <g
     inkscape:label="Layer 1"
     inkscape:groupmode="layer"
     id="layer1"
     transform="translate(-128.69723,-448.34271)">
    <g
       transform="translate(-228.85283,-79.14561)"
       id="g2989">
      <g
         id="g3633"
         transform="translate(0.17857144,0.23129472)">
        <path
           inkscape:connector-curvature="0"
           id="path6574-0"
           style="fill:#ffffff;fill-opacity:1;fill-rule:nonzero;stroke:none"
           d="m 371.63176,527.50765 c -0.675,0 -1.225,0.55125 -1.225,1.2275 l 0,9.4025 c 0,0.67374 0.55,1.2225 1.225,1.2225 l 9.4025,0 c 0.67624,0 1.22625,-0.54876 1.22625,-1.2225 l 0,-9.4025 c 0,-0.67626 -0.55001,-1.2275 -1.22625,-1.2275 l -9.4025,0 z" />
        <path
           inkscape:connector-curvature="0"
           id="path6578-0"
           style="fill:#373535;fill-opacity:1;fill-rule:nonzero;stroke:none"
           d="m 381.03488,539.61077 c 0.815,0 1.47625,-0.65875 1.47625,-1.47499 l 0,-9.40125 c 0,-0.81625 -0.66125,-1.4775 -1.47625,-1.4775 l -9.4025,0 c -0.815,0 -1.47625,0.66125 -1.47625,1.4775 l 0,9.40125 c 0,0.81625 0.66125,1.47499 1.47625,1.47499 l 9.4025,0 z" />
        <path
           id="path3011"
           inkscape:connector-curvature="0"
           d="m 381.12749,531.9496 c -0.0244,-0.39935 -0.14511,-0.48641 -0.58974,-0.78707 0.0488,-0.0993 0.0783,-0.21072 0.0783,-0.32738 0,-0.43766 -0.38542,-0.79116 -0.85907,-0.79116 -0.31924,0 -0.59727,0.16021 -0.7453,0.39935 -0.0905,-0.0598 -0.15381,-0.11662 -0.17296,-0.17356 -0.0748,-0.25306 -0.33144,-0.41501 -0.61122,-0.41385 -0.11082,-0.29836 -0.40689,-0.51196 -0.75516,-0.51196 -0.28383,0 -0.53517,0.14395 -0.6768,0.36046 -0.0866,0.0209 -0.17761,0.0465 -0.26352,0.0791 -0.38078,-0.0598 -0.61702,-0.0547 -0.76213,-0.0621 -0.29139,0.2072 -1.19284,1.05989 -1.19284,1.05989 0,0 -0.37669,0.46203 -0.3529,0.58392 -0.21826,0.0977 -2.22718,1.55911 -2.42221,1.80172 0,0 -0.69364,0.49918 0.17065,1.38902 0.8637,0.88808 1.69201,1.00939 2.00834,0.63211 0.31694,-0.37672 1.58289,-2.215 1.59451,-2.48259 0.19503,-0.18225 0.31634,-0.35291 0.31634,-0.35291 l 0.71859,0.0737 0.21941,-0.20779 c 0,0 0.17007,0.2194 0.47422,0.14625 0.2316,0.20724 0.57233,0.52358 0.57233,0.52358 l 0.73079,0.39006 c 0,0 -1.8023,1.93521 -1.97236,2.33688 -0.17066,0.4011 0.10907,1.19283 1.15566,1.65603 1.04771,0.46262 1.54748,0.25482 1.78779,-0.34073 0,0 0.68376,-1.77792 0.83062,-2.66541 0.40167,-0.94033 0.74298,-1.91433 0.71859,-2.31541 l 0,0 z m -7.32351,2.69909 c -0.73254,0 -1.34433,-0.54794 -1.50105,-1.28222 0.25655,0.0512 0.5642,0.19853 0.85557,0.42663 0.34305,0.26934 0.58278,0.58857 0.66637,0.85559 -0.005,0 -0.0128,0 -0.0209,0 l 0,0 z m 4.95179,2.02286 c -0.69885,0 -1.28974,-0.49918 -1.47781,-1.1841 0.30646,-0.0348 0.70989,0.0592 1.0982,0.27802 0.4069,0.23045 0.70119,0.54505 0.81843,0.83701 -0.1393,0.0447 -0.28674,0.069 -0.43882,0.069 z"
           style="fill:#ffffff" />
      </g>
    </g>
    <g
       transform="translate(-244.93441,-82.464825)"
       id="g33928">
      <g
         id="g33919">
        <path
           inkscape:connector-curvature="0"
           id="path6578"
           style="fill:#373535;fill-opacity:1;fill-rule:nonzero;stroke:none"
           d="m 384.51038,543.16128 c 0.815,0 1.47625,-0.65875 1.47625,-1.47499 l 0,-9.40125 c 0,-0.81625 -0.66125,-1.4775 -1.47625,-1.4775 l -9.4025,0 c -0.815,0 -1.47624,0.66125 -1.47624,1.4775 l 0,9.40125 c 0,0.81625 0.66124,1.47499 1.47624,1.47499 l 9.4025,0 z" />
        <g
           transform="matrix(0.63299347,0,0,0.63299347,246.55768,429.52934)"
           id="g33879">
          <path
             d="m 210.404,169.894 c 0.59,0.016 1.081,-0.448 1.098,-1.037 0.018,-0.59 -0.447,-1.081 -1.035,-1.099 -0.591,-0.017 -1.083,0.446 -1.1,1.036 -0.017,0.59 0.447,1.082 1.037,1.1 l 0,0 z"
             id="path18257"
             inkscape:connector-curvature="0"
             style="fill:#ffffff" />
          <path
             d="m 208.408,169.433 c 0.196,-0.003 0.815,0.096 1.225,0.41 0.409,0.313 0.682,0.672 0.792,0.857 0.034,0.055 0.073,0.118 0.084,0.193 0.015,-0.074 0.039,-0.145 0.067,-0.184 0.075,-0.118 0.411,-0.555 0.579,-0.699 0.307,-0.262 0.647,-0.519 1.476,-0.593 l -0.006,1.123 c -0.15,0.006 -0.47,0.095 -0.747,0.325 -0.282,0.238 -0.593,0.695 -0.691,1.021 -0.098,0.326 -0.114,0.597 -0.12,0.791 l -0.016,2.183 -1.053,0.005 -0.004,-2.178 c -0.003,-0.205 -0.044,-0.624 -0.154,-0.831 -0.109,-0.208 -0.348,-0.779 -0.777,-1.055 -0.132,-0.084 -0.331,-0.258 -0.651,-0.259 l -0.004,-1.109 0,0 z"
             id="path18259"
             inkscape:connector-curvature="0"
             style="fill:#ffffff" />
          <path
             d="m 210.503,166.685 c 0.027,0.034 0.075,0.087 0.123,0.12 0.063,0.043 0.856,0.548 1.646,1.34 0.248,0.249 0.918,1.055 0.922,2.05 0.003,0.889 -0.499,1.527 -0.56,1.593 -0.188,0.211 -0.873,0.757 -1.271,0.807 l -0.006,1.156 c 0.495,-0.098 1.329,-0.419 1.802,-0.896 0.473,-0.479 0.866,-1.053 1.042,-1.778 0.203,-0.833 0.055,-1.782 -0.203,-2.33 -0.344,-0.735 -0.936,-1.431 -1.678,-2.023 l -1.822,-1.353 -1.816,1.36 c -0.74,0.598 -1.326,1.296 -1.668,2.032 -0.256,0.55 -0.4,1.5 -0.191,2.332 0.18,0.724 0.575,1.297 1.05,1.772 0.476,0.476 1.311,0.793 1.806,0.888 l -0.011,-1.155 c -0.398,-0.047 -1.086,-0.592 -1.274,-0.802 -0.062,-0.063 -0.566,-0.7 -0.566,-1.589 -0.001,-0.995 0.665,-1.804 0.911,-2.054 0.786,-0.798 1.576,-1.305 1.64,-1.349 0.049,-0.033 0.095,-0.087 0.124,-0.121 l 0,0 z"
             id="path18261"
             inkscape:connector-curvature="0"
             style="fill:#ffffff" />
          <polygon
             style="fill:#ffffff"
             id="polygon18267"
             points="204.235,166.689 204.85,166.689 204.85,175.852 216.173,175.852 216.173,166.689 216.785,166.689 216.785,176.466 204.235,176.466 " />
          <polygon
             style="fill:#ffffff"
             id="polygon18269"
             points="202.701,167.874 202.414,167.331 210.511,163.048 218.606,167.331 218.32,167.874 210.511,163.742 " />
        </g>
      </g>
    </g>
  </g>
</svg>
