<?xml version="1.0" encoding="UTF-8" standalone="no"?>
<!-- Created with Inkscape (http://www.inkscape.org/) -->

<svg
   xmlns:dc="http://purl.org/dc/elements/1.1/"
   xmlns:cc="http://creativecommons.org/ns#"
   xmlns:rdf="http://www.w3.org/1999/02/22-rdf-syntax-ns#"
   xmlns:svg="http://www.w3.org/2000/svg"
   xmlns="http://www.w3.org/2000/svg"
   xmlns:sodipodi="http://sodipodi.sourceforge.net/DTD/sodipodi-0.dtd"
   xmlns:inkscape="http://www.inkscape.org/namespaces/inkscape"
   width="7.1656442mm"
   height="3.4865026mm"
   viewBox="0 0 25.390077 12.35375"
   id="svg3349"
   version="1.1"
   inkscape:version="0.91 r13725"
   sodipodi:docname="geologic_mtnbiking.svg">
  <defs
     id="defs3351" />
  <sodipodi:namedview
     id="base"
     pagecolor="#ffffff"
     bordercolor="#666666"
     borderopacity="1.0"
     inkscape:pageopacity="0.0"
     inkscape:pageshadow="2"
     inkscape:zoom="5.6"
     inkscape:cx="8.6965566"
     inkscape:cy="8.0151825"
     inkscape:document-units="px"
     inkscape:current-layer="layer1"
     showgrid="false"
     fit-margin-top="0"
     fit-margin-left="0"
     fit-margin-right="0"
     fit-margin-bottom="0"
     inkscape:window-width="638"
     inkscape:window-height="405"
     inkscape:window-x="72"
     inkscape:window-y="49"
     inkscape:window-maximized="0" />
  <metadata
     id="metadata3354">
    <rdf:RDF>
      <cc:Work
         rdf:about="">
        <dc:format>image/svg+xml</dc:format>
        <dc:type
           rdf:resource="http://purl.org/dc/dcmitype/StillImage" />
        <dc:title></dc:title>
      </cc:Work>
    </rdf:RDF>
  </metadata>
  <g
     inkscape:label="Layer 1"
     inkscape:groupmode="layer"
     id="layer1"
     transform="translate(-128.44616,-448.28999)">
    <g
       transform="translate(-241.70997,-78.967039)"
       id="g2989">
      <path
         d="m 371.63176,527.50765 c -0.675,0 -1.225,0.55125 -1.225,1.2275 l 0,9.4025 c 0,0.67374 0.55,1.2225 1.225,1.2225 l 9.4025,0 c 0.67624,0 1.22625,-0.54876 1.22625,-1.2225 l 0,-9.4025 c 0,-0.67626 -0.55001,-1.2275 -1.22625,-1.2275 l -9.4025,0 z"
         style="fill:#ffffff;fill-opacity:1;fill-rule:nonzero;stroke:none"
         id="path6574-0"
         inkscape:connector-curvature="0" />
      <path
         d="m 381.03488,539.61077 c 0.815,0 1.47625,-0.65875 1.47625,-1.47499 l 0,-9.40125 c 0,-0.81625 -0.66125,-1.4775 -1.47625,-1.4775 l -9.4025,0 c -0.815,0 -1.47625,0.66125 -1.47625,1.4775 l 0,9.40125 c 0,0.81625 0.66125,1.47499 1.47625,1.47499 l 9.4025,0 z"
         style="fill:#373535;fill-opacity:1;fill-rule:nonzero;stroke:none"
         id="path6578-0"
         inkscape:connector-curvature="0" />
      <path
         style="fill:#ffffff"
         d="m 381.12749,531.9496 c -0.0244,-0.39935 -0.14511,-0.48641 -0.58974,-0.78707 0.0488,-0.0993 0.0783,-0.21072 0.0783,-0.32738 0,-0.43766 -0.38542,-0.79116 -0.85907,-0.79116 -0.31924,0 -0.59727,0.16021 -0.7453,0.39935 -0.0905,-0.0598 -0.15381,-0.11662 -0.17296,-0.17356 -0.0748,-0.25306 -0.33144,-0.41501 -0.61122,-0.41385 -0.11082,-0.29836 -0.40689,-0.51196 -0.75516,-0.51196 -0.28383,0 -0.53517,0.14395 -0.6768,0.36046 -0.0866,0.0209 -0.17761,0.0465 -0.26352,0.0791 -0.38078,-0.0598 -0.61702,-0.0547 -0.76213,-0.0621 -0.29139,0.2072 -1.19284,1.05989 -1.19284,1.05989 0,0 -0.37669,0.46203 -0.3529,0.58392 -0.21826,0.0977 -2.22718,1.55911 -2.42221,1.80172 0,0 -0.69364,0.49918 0.17065,1.38902 0.8637,0.88808 1.69201,1.00939 2.00834,0.63211 0.31694,-0.37672 1.58289,-2.215 1.59451,-2.48259 0.19503,-0.18225 0.31634,-0.35291 0.31634,-0.35291 l 0.71859,0.0737 0.21941,-0.20779 c 0,0 0.17007,0.2194 0.47422,0.14625 0.2316,0.20724 0.57233,0.52358 0.57233,0.52358 l 0.73079,0.39006 c 0,0 -1.8023,1.93521 -1.97236,2.33688 -0.17066,0.4011 0.10907,1.19283 1.15566,1.65603 1.04771,0.46262 1.54748,0.25482 1.78779,-0.34073 0,0 0.68376,-1.77792 0.83062,-2.66541 0.40167,-0.94033 0.74298,-1.91433 0.71859,-2.31541 l 0,0 z m -7.32351,2.69909 c -0.73254,0 -1.34433,-0.54794 -1.50105,-1.28222 0.25655,0.0512 0.5642,0.19853 0.85557,0.42663 0.34305,0.26934 0.58278,0.58857 0.66637,0.85559 -0.005,0 -0.0128,0 -0.0209,0 l 0,0 z m 4.95179,2.02286 c -0.69885,0 -1.28974,-0.49918 -1.47781,-1.1841 0.30646,-0.0348 0.70989,0.0592 1.0982,0.27802 0.4069,0.23045 0.70119,0.54505 0.81843,0.83701 -0.1393,0.0447 -0.28674,0.069 -0.43882,0.069 z"
         inkscape:connector-curvature="0"
         id="path3011" />
    </g>
    <g
       transform="translate(-228.67426,-78.967014)"
       id="g62435">
      <path
         d="m 371.63238,527.50762 c -0.67625,0 -1.22501,0.54875 -1.22501,1.225 l 0,9.40251 c 0,0.67624 0.54875,1.225 1.22501,1.225 l 9.40125,0 c 0.67624,0 1.22625,-0.54876 1.22625,-1.225 l 0,-9.40251 c 0,-0.67625 -0.55001,-1.225 -1.22625,-1.225 l -9.40125,0 z"
         style="fill:#ffffff;fill-opacity:1;fill-rule:nonzero;stroke:none"
         id="path6586"
         inkscape:connector-curvature="0" />
      <path
         d="m 381.03425,539.61075 c 0.815,0 1.47625,-0.66125 1.47625,-1.4775 l 0,-9.40125 c 0,-0.815 -0.66125,-1.475 -1.47625,-1.475 l -9.40125,0 c -0.81625,0 -1.47625,0.66 -1.47625,1.475 l 0,9.40125 c 0,0.81625 0.66,1.4775 1.47625,1.4775 l 9.40125,0 z"
         style="fill:#373535;fill-opacity:1;fill-rule:nonzero;stroke:none"
         id="path6590"
         inkscape:connector-curvature="0" />
      <g
         style="fill:#ffffff"
         transform="matrix(0.63001711,0,0,0.63001711,305.85202,445.5927)"
         id="g62383">
        <path
           d="m 104.023,140.33 0,6.847 14.504,0 c 0,0 -0.417,-0.654 -1.49,-0.811 -1.353,-0.195 -2.156,-0.439 -3.318,-1.019 -1.323,-0.659 -2.325,-0.601 -2.64,-1.307 l -1.098,0.209 c 0,0 -0.598,0.156 -1.475,-0.653 -0.877,-0.809 -1.113,-0.987 -1.113,-0.987 l -1.019,-0.567 -0.705,-0.823 c 0,0 -0.314,-0.22 -0.549,-0.371 -0.235,-0.152 -0.418,-0.596 -0.522,-0.518 -0.105,0.078 -0.575,0 -0.575,0 z"
           id="path13571"
           inkscape:connector-curvature="0"
           style="fill:#ffffff" />
        <ellipse
           style="fill:#ffffff"
           id="ellipse13575"
           ry="1.126"
           rx="1.176"
           cy="132.8"
           cx="116.579"
           transform="matrix(1,0.0054,-0.0054,1,0.7183,-0.6272)" />
        <path
           style="fill:#ffffff"
           inkscape:connector-curvature="0"
           id="path13577"
           d="m 108.813,136.33 c -1.766,-0.01 -3.207,1.38 -3.217,3.104 -0.01,1.723 1.416,3.128 3.182,3.138 1.768,0.01 3.207,-1.38 3.217,-3.103 0.009,-1.724 -1.415,-3.129 -3.182,-3.139 z m -0.031,5.462 c -1.324,-0.008 -2.393,-1.062 -2.386,-2.354 0.007,-1.293 1.087,-2.336 2.411,-2.328 1.326,0.007 2.395,1.063 2.388,2.355 -0.007,1.293 -1.087,2.334 -2.413,2.327 z" />
        <path
           style="fill:#ffffff"
           inkscape:connector-curvature="0"
           id="path13579"
           d="m 116.541,139.69 c -1.767,-0.01 -3.207,1.379 -3.217,3.104 -0.01,1.723 1.415,3.129 3.182,3.139 1.767,0.01 3.206,-1.381 3.216,-3.104 0.009,-1.724 -1.414,-3.129 -3.181,-3.139 z m -0.03,5.462 c -1.325,-0.008 -2.394,-1.063 -2.387,-2.354 0.007,-1.293 1.087,-2.334 2.412,-2.327 1.324,0.008 2.394,1.062 2.387,2.354 -0.007,1.292 -1.088,2.335 -2.412,2.327 z" />
        <path
           style="fill:#ffffff"
           inkscape:connector-curvature="0"
           id="path13581"
           d="m 117.783,137.091 c -0.014,-0.003 -0.026,0 -0.039,0 0.12,0.263 0.095,0.543 -0.087,0.679 -0.166,0.126 -0.412,0.094 -0.622,-0.057 l -3.239,-0.301 -1.987,-0.182 -0.147,-0.014 c -0.011,-0.001 -0.022,0.001 -0.035,0.001 -0.029,-0.004 -0.06,0 -0.082,0.018 l -2.791,2.073 -0.032,-0.002 c -0.03,-0.002 -0.059,0.036 -0.074,0.089 -0.03,0.035 -0.033,0.089 -0.011,0.141 0.01,0.063 0.036,0.108 0.07,0.109 l 2.359,0.102 c 0.013,0 0.022,-0.005 0.035,-0.014 0.018,-0.001 0.035,-0.001 0.055,-0.008 l 1.693,-0.467 1.529,-0.422 2.815,-0.776 c 0.041,-0.011 0.094,0 0.094,0 l -0.954,4.473 c -0.025,0.12 0.066,0.24 0.209,0.271 0.142,0.03 0.276,-0.04 0.302,-0.161 l 1.146,-5.279 c 0.027,-0.12 -0.066,-0.242 -0.207,-0.273 z m -3.354,1.408 -1.451,0.4 -1.876,0.518 c -0.008,-0.004 -0.014,-0.008 -0.021,-0.009 l -1.833,-0.079 2.422,-1.8 0.443,0.042 1.987,0.184 2.27,0.209 -1.941,0.535 z" />
        <path
           d="m 112.138,141.238 c -0.134,0.373 0.031,0.772 0.368,0.893 0.336,0.122 0.716,-0.083 0.851,-0.454 l 1.021,-2.84 -1.529,0.422 -0.711,1.979 z"
           id="path13585"
           inkscape:connector-curvature="0"
           style="fill:#ffffff" />
        <path
           d="m 114.231,137.903 -0.132,-0.148 -1.987,-0.184 0.957,1.076 -0.092,0.252 1.451,-0.4 c -10e-4,-0.021 0.001,-0.042 -10e-4,-0.062 0.007,-0.185 -0.057,-0.377 -0.196,-0.534 z"
           id="path13587"
           inkscape:connector-curvature="0"
           style="fill:#ffffff" />
        <path
           d="m 117.744,137.091 c -0.028,-0.06 -0.06,-0.117 -0.101,-0.174 l -2.542,-3.374 c -0.228,-0.304 -0.593,-0.416 -0.814,-0.248 -0.101,0.077 -0.853,0.495 -1.21,0.707 l -0.946,0.561 c -0.562,0.332 -0.944,0.792 -1.063,1.211 -0.106,0.244 -0.061,0.554 0.142,0.781 l 0.6,0.676 1.987,0.182 -0.852,-0.955 c 0.08,-0.038 0.159,-0.076 0.235,-0.121 l 0.947,-0.562 c 0.359,-0.212 0.642,-0.479 0.833,-0.751 l 1.883,2.499 c 0.058,0.075 0.122,0.141 0.192,0.19 0.21,0.15 0.456,0.183 0.622,0.057 0.182,-0.136 0.207,-0.416 0.087,-0.679 z"
           id="path13589"
           inkscape:connector-curvature="0"
           style="fill:#ffffff" />
      </g>
    </g>
  </g>
</svg>
