<?xml version="1.0" encoding="UTF-8" standalone="no"?>
<!-- Created with Inkscape (http://www.inkscape.org/) -->

<svg
   xmlns:dc="http://purl.org/dc/elements/1.1/"
   xmlns:cc="http://creativecommons.org/ns#"
   xmlns:rdf="http://www.w3.org/1999/02/22-rdf-syntax-ns#"
   xmlns:svg="http://www.w3.org/2000/svg"
   xmlns="http://www.w3.org/2000/svg"
   xmlns:sodipodi="http://sodipodi.sourceforge.net/DTD/sodipodi-0.dtd"
   xmlns:inkscape="http://www.inkscape.org/namespaces/inkscape"
   width="14.310924mm"
   height="6.9731474mm"
   viewBox="0 0 50.707996 24.708003"
   id="svg3349"
   version="1.1"
   inkscape:version="0.91 r13725"
   sodipodi:docname="geologic_visitorcenter.svg">
  <defs
     id="defs3351" />
  <sodipodi:namedview
     id="base"
     pagecolor="#ffffff"
     bordercolor="#666666"
     borderopacity="1.0"
     inkscape:pageopacity="0.0"
     inkscape:pageshadow="2"
     inkscape:zoom="10"
     inkscape:cx="35.439661"
     inkscape:cy="3.8795504"
     inkscape:document-units="px"
     inkscape:current-layer="layer1"
     showgrid="false"
     fit-margin-top="0"
     fit-margin-left="0"
     fit-margin-right="0"
     fit-margin-bottom="0"
     inkscape:window-width="1581"
     inkscape:window-height="879"
     inkscape:window-x="72"
     inkscape:window-y="49"
     inkscape:window-maximized="0" />
  <metadata
     id="metadata3354">
    <rdf:RDF>
      <cc:Work
         rdf:about="">
        <dc:format>image/svg+xml</dc:format>
        <dc:type
           rdf:resource="http://purl.org/dc/dcmitype/StillImage" />
        <dc:title></dc:title>
      </cc:Work>
    </rdf:RDF>
  </metadata>
  <g
     inkscape:label="Layer 1"
     inkscape:groupmode="layer"
     id="layer1"
     transform="translate(-100.9294,-436.45129)">
    <g
       id="g4156">
      <g
         id="g2989"
         transform="matrix(1.9998382,0,0,2.0000422,-613.68008,-618.54762)">
        <g
           transform="translate(0.17857144,0.23129472)"
           id="g3633">
          <path
             d="m 371.63176,527.50765 c -0.675,0 -1.225,0.55125 -1.225,1.2275 l 0,9.4025 c 0,0.67374 0.55,1.2225 1.225,1.2225 l 9.4025,0 c 0.67624,0 1.22625,-0.54876 1.22625,-1.2225 l 0,-9.4025 c 0,-0.67626 -0.55001,-1.2275 -1.22625,-1.2275 l -9.4025,0 z"
             style="fill:#ffffff;fill-opacity:1;fill-rule:nonzero;stroke:none"
             id="path6574-0"
             inkscape:connector-curvature="0" />
          <path
             d="m 381.03488,539.61077 c 0.815,0 1.47625,-0.65875 1.47625,-1.47499 l 0,-9.40125 c 0,-0.81625 -0.66125,-1.4775 -1.47625,-1.4775 l -9.4025,0 c -0.815,0 -1.47625,0.66125 -1.47625,1.4775 l 0,9.40125 c 0,0.81625 0.66125,1.47499 1.47625,1.47499 l 9.4025,0 z"
             style="fill:#373535;fill-opacity:1;fill-rule:nonzero;stroke:none"
             id="path6578-0"
             inkscape:connector-curvature="0" />
          <path
             style="fill:#ffffff"
             d="m 381.12749,531.9496 c -0.0244,-0.39935 -0.14511,-0.48641 -0.58974,-0.78707 0.0488,-0.0993 0.0783,-0.21072 0.0783,-0.32738 0,-0.43766 -0.38542,-0.79116 -0.85907,-0.79116 -0.31924,0 -0.59727,0.16021 -0.7453,0.39935 -0.0905,-0.0598 -0.15381,-0.11662 -0.17296,-0.17356 -0.0748,-0.25306 -0.33144,-0.41501 -0.61122,-0.41385 -0.11082,-0.29836 -0.40689,-0.51196 -0.75516,-0.51196 -0.28383,0 -0.53517,0.14395 -0.6768,0.36046 -0.0866,0.0209 -0.17761,0.0465 -0.26352,0.0791 -0.38078,-0.0598 -0.61702,-0.0547 -0.76213,-0.0621 -0.29139,0.2072 -1.19284,1.05989 -1.19284,1.05989 0,0 -0.37669,0.46203 -0.3529,0.58392 -0.21826,0.0977 -2.22718,1.55911 -2.42221,1.80172 0,0 -0.69364,0.49918 0.17065,1.38902 0.8637,0.88808 1.69201,1.00939 2.00834,0.63211 0.31694,-0.37672 1.58289,-2.215 1.59451,-2.48259 0.19503,-0.18225 0.31634,-0.35291 0.31634,-0.35291 l 0.71859,0.0737 0.21941,-0.20779 c 0,0 0.17007,0.2194 0.47422,0.14625 0.2316,0.20724 0.57233,0.52358 0.57233,0.52358 l 0.73079,0.39006 c 0,0 -1.8023,1.93521 -1.97236,2.33688 -0.17066,0.4011 0.10907,1.19283 1.15566,1.65603 1.04771,0.46262 1.54748,0.25482 1.78779,-0.34073 0,0 0.68376,-1.77792 0.83062,-2.66541 0.40167,-0.94033 0.74298,-1.91433 0.71859,-2.31541 l 0,0 z m -7.32351,2.69909 c -0.73254,0 -1.34433,-0.54794 -1.50105,-1.28222 0.25655,0.0512 0.5642,0.19853 0.85557,0.42663 0.34305,0.26934 0.58278,0.58857 0.66637,0.85559 -0.005,0 -0.0128,0 -0.0209,0 l 0,0 z m 4.95179,2.02286 c -0.69885,0 -1.28974,-0.49918 -1.47781,-1.1841 0.30646,-0.0348 0.70989,0.0592 1.0982,0.27802 0.4069,0.23045 0.70119,0.54505 0.81843,0.83701 -0.1393,0.0447 -0.28674,0.069 -0.43882,0.069 z"
             inkscape:connector-curvature="0"
             id="path3011" />
        </g>
      </g>
      <g
         id="g3370"
         transform="matrix(1.9996764,0,0,2.0000001,-646.21169,-625.16276)">
        <path
           id="path6578"
           inkscape:connector-curvature="0"
           d="m 384.51,543.161 c 0.815,0 1.477,-0.659 1.477,-1.475 l 0,-9.401 c 0,-0.816 -0.661,-1.478 -1.477,-1.478 l -9.402,0 c -0.815,0 -1.477,0.661 -1.477,1.478 l 0,9.401 c 0,0.815 0.661,1.475 1.477,1.475 l 9.402,0 z"
           style="fill:#373535" />
        <g
           id="g3365"
           transform="matrix(1.2926445,0,0,1.2926445,-111.15971,-157.14592)">
          <path
             id="path18257"
             inkscape:connector-curvature="0"
             d="m 379.72938,536.79768 c 0.49373,0.012 0.90328,-0.37473 0.91721,-0.8672 0.0165,-0.49247 -0.37284,-0.90265 -0.86404,-0.91784 -0.49437,-0.0139 -0.90455,0.37283 -0.91911,0.86593 -0.0139,0.49247 0.37284,0.90328 0.86594,0.91911 l 0,0 z"
             style="fill:#ffffff" />
          <path
             id="path18259"
             inkscape:connector-curvature="0"
             d="m 378.06271,536.41219 c 0.16394,-0.003 0.68046,0.0804 1.02418,0.34308 0.34118,0.26143 0.56906,0.56146 0.66021,0.71591 0.0291,0.0462 0.0608,0.0987 0.0703,0.16142 0.0127,-0.0627 0.0335,-0.12217 0.0563,-0.15319 0.062,-0.0994 0.34308,-0.46398 0.48361,-0.58425 0.25699,-0.21965 0.53994,-0.43423 1.23244,-0.49563 l -0.004,0.93809 c -0.1247,0.005 -0.39372,0.0791 -0.62477,0.27156 -0.23547,0.19812 -0.49626,0.57982 -0.57729,0.85327 -0.0823,0.27156 -0.0949,0.49817 -0.10001,0.65895 l -0.0127,1.82429 -0.88049,0.005 -0.003,-1.81922 c -0.003,-0.17218 -0.0373,-0.52222 -0.12913,-0.69503 -0.0918,-0.17281 -0.29181,-0.65008 -0.64945,-0.88113 -0.11014,-0.0703 -0.27598,-0.21458 -0.54374,-0.21648 l -0.003,-0.9267 0,0 0,0 z"
             style="fill:#ffffff" />
          <path
             id="path18261"
             inkscape:connector-curvature="0"
             d="m 379.81167,534.11695 c 0.0228,0.0279 0.0633,0.0715 0.10318,0.0994 0.0532,0.0361 0.71464,0.45829 1.37486,1.11913 0.20825,0.20826 0.76655,0.88113 0.77035,1.71288 0.003,0.74251 -0.41714,1.27612 -0.46778,1.32929 -0.15698,0.17787 -0.72921,0.63299 -1.06153,0.67667 l -0.005,0.96468 c 0.41335,-0.081 1.10964,-0.35068 1.504,-0.74883 0.39625,-0.39942 0.72477,-0.87859 0.871,-1.48563 0.169,-0.69503 0.0468,-1.48817 -0.16965,-1.94583 -0.28611,-0.614 -0.78111,-1.19509 -1.40144,-1.69072 l -1.52172,-1.12989 -1.51729,1.13559 c -0.61843,0.49943 -1.1071,1.08241 -1.39258,1.69705 -0.21395,0.46019 -0.33422,1.25333 -0.16015,1.94772 0.15065,0.60451 0.48108,1.08369 0.87733,1.48121 0.39752,0.39625 1.09508,0.66211 1.50779,0.74123 l -0.009,-0.96468 c -0.33232,-0.0399 -0.90708,-0.495 -1.0647,-0.66971 -0.0506,-0.0525 -0.47094,-0.58488 -0.47094,-1.32738 -0.002,-0.83112 0.55513,-1.50716 0.75959,-1.71605 0.65705,-0.66654 1.31726,-1.09001 1.37043,-1.12736 0.0411,-0.0253 0.0804,-0.0709 0.10318,-0.0987 l 0,0 z"
             style="fill:#ffffff" />
        </g>
      </g>
    </g>
  </g>
</svg>
