<?xml version="1.0" encoding="UTF-8" standalone="no"?>
<!-- Created with Inkscape (http://www.inkscape.org/) -->

<svg
   xmlns:dc="http://purl.org/dc/elements/1.1/"
   xmlns:cc="http://creativecommons.org/ns#"
   xmlns:rdf="http://www.w3.org/1999/02/22-rdf-syntax-ns#"
   xmlns:svg="http://www.w3.org/2000/svg"
   xmlns="http://www.w3.org/2000/svg"
   xmlns:sodipodi="http://sodipodi.sourceforge.net/DTD/sodipodi-0.dtd"
   xmlns:inkscape="http://www.inkscape.org/namespaces/inkscape"
   width="11.013584mm"
   height="3.4865041mm"
   viewBox="0 0 39.024509 12.353755"
   id="svg3349"
   version="1.1"
   inkscape:version="0.91 r13725"
   sodipodi:docname="mtnbiking_picnic_visitorcenter.svg">
  <defs
     id="defs3351" />
  <sodipodi:namedview
     id="base"
     pagecolor="#ffffff"
     bordercolor="#666666"
     borderopacity="1.0"
     inkscape:pageopacity="0.0"
     inkscape:pageshadow="2"
     inkscape:zoom="3.959798"
     inkscape:cx="14.213159"
     inkscape:cy="14.405791"
     inkscape:document-units="px"
     inkscape:current-layer="layer1"
     showgrid="false"
     fit-margin-top="0"
     fit-margin-left="0"
     fit-margin-right="0"
     fit-margin-bottom="0"
     inkscape:window-width="638"
     inkscape:window-height="405"
     inkscape:window-x="72"
     inkscape:window-y="49"
     inkscape:window-maximized="0" />
  <metadata
     id="metadata3354">
    <rdf:RDF>
      <cc:Work
         rdf:about="">
        <dc:format>image/svg+xml</dc:format>
        <dc:type
           rdf:resource="http://purl.org/dc/dcmitype/StillImage" />
        <dc:title></dc:title>
      </cc:Work>
    </rdf:RDF>
  </metadata>
  <g
     inkscape:label="Layer 1"
     inkscape:groupmode="layer"
     id="layer1"
     transform="translate(-129.00977,-448.30612)">
    <g
       transform="translate(-244.62187,-82.501415)"
       id="g33928">
      <g
         id="g33919">
        <path
           inkscape:connector-curvature="0"
           id="path6578"
           style="fill:#373535;fill-opacity:1;fill-rule:nonzero;stroke:none"
           d="m 384.51038,543.16128 c 0.815,0 1.47625,-0.65875 1.47625,-1.47499 l 0,-9.40125 c 0,-0.81625 -0.66125,-1.4775 -1.47625,-1.4775 l -9.4025,0 c -0.815,0 -1.47624,0.66125 -1.47624,1.4775 l 0,9.40125 c 0,0.81625 0.66124,1.47499 1.47624,1.47499 l 9.4025,0 z" />
        <g
           transform="matrix(0.63299347,0,0,0.63299347,246.55768,429.52934)"
           id="g33879">
          <path
             d="m 210.404,169.894 c 0.59,0.016 1.081,-0.448 1.098,-1.037 0.018,-0.59 -0.447,-1.081 -1.035,-1.099 -0.591,-0.017 -1.083,0.446 -1.1,1.036 -0.017,0.59 0.447,1.082 1.037,1.1 l 0,0 z"
             id="path18257"
             inkscape:connector-curvature="0"
             style="fill:#ffffff" />
          <path
             d="m 208.408,169.433 c 0.196,-0.003 0.815,0.096 1.225,0.41 0.409,0.313 0.682,0.672 0.792,0.857 0.034,0.055 0.073,0.118 0.084,0.193 0.015,-0.074 0.039,-0.145 0.067,-0.184 0.075,-0.118 0.411,-0.555 0.579,-0.699 0.307,-0.262 0.647,-0.519 1.476,-0.593 l -0.006,1.123 c -0.15,0.006 -0.47,0.095 -0.747,0.325 -0.282,0.238 -0.593,0.695 -0.691,1.021 -0.098,0.326 -0.114,0.597 -0.12,0.791 l -0.016,2.183 -1.053,0.005 -0.004,-2.178 c -0.003,-0.205 -0.044,-0.624 -0.154,-0.831 -0.109,-0.208 -0.348,-0.779 -0.777,-1.055 -0.132,-0.084 -0.331,-0.258 -0.651,-0.259 l -0.004,-1.109 0,0 z"
             id="path18259"
             inkscape:connector-curvature="0"
             style="fill:#ffffff" />
          <path
             d="m 210.503,166.685 c 0.027,0.034 0.075,0.087 0.123,0.12 0.063,0.043 0.856,0.548 1.646,1.34 0.248,0.249 0.918,1.055 0.922,2.05 0.003,0.889 -0.499,1.527 -0.56,1.593 -0.188,0.211 -0.873,0.757 -1.271,0.807 l -0.006,1.156 c 0.495,-0.098 1.329,-0.419 1.802,-0.896 0.473,-0.479 0.866,-1.053 1.042,-1.778 0.203,-0.833 0.055,-1.782 -0.203,-2.33 -0.344,-0.735 -0.936,-1.431 -1.678,-2.023 l -1.822,-1.353 -1.816,1.36 c -0.74,0.598 -1.326,1.296 -1.668,2.032 -0.256,0.55 -0.4,1.5 -0.191,2.332 0.18,0.724 0.575,1.297 1.05,1.772 0.476,0.476 1.311,0.793 1.806,0.888 l -0.011,-1.155 c -0.398,-0.047 -1.086,-0.592 -1.274,-0.802 -0.062,-0.063 -0.566,-0.7 -0.566,-1.589 -0.001,-0.995 0.665,-1.804 0.911,-2.054 0.786,-0.798 1.576,-1.305 1.64,-1.349 0.049,-0.033 0.095,-0.087 0.124,-0.121 l 0,0 z"
             id="path18261"
             inkscape:connector-curvature="0"
             style="fill:#ffffff" />
          <polygon
             style="fill:#ffffff"
             id="polygon18267"
             points="216.173,166.689 216.785,166.689 216.785,176.466 204.235,176.466 204.235,166.689 204.85,166.689 204.85,175.852 216.173,175.852 " />
          <polygon
             style="fill:#ffffff"
             id="polygon18269"
             points="202.701,167.874 202.414,167.331 210.511,163.048 218.606,167.331 218.32,167.874 210.511,163.742 " />
        </g>
      </g>
    </g>
    <g
       transform="translate(-214.47622,-78.95088)"
       id="g62435">
      <path
         d="m 371.63238,527.50762 c -0.67625,0 -1.22501,0.54875 -1.22501,1.225 l 0,9.40251 c 0,0.67624 0.54875,1.225 1.22501,1.225 l 9.40125,0 c 0.67624,0 1.22625,-0.54876 1.22625,-1.225 l 0,-9.40251 c 0,-0.67625 -0.55001,-1.225 -1.22625,-1.225 l -9.40125,0 z"
         style="fill:#ffffff;fill-opacity:1;fill-rule:nonzero;stroke:none"
         id="path6586"
         inkscape:connector-curvature="0" />
      <path
         d="m 381.03425,539.61075 c 0.815,0 1.47625,-0.66125 1.47625,-1.4775 l 0,-9.40125 c 0,-0.815 -0.66125,-1.475 -1.47625,-1.475 l -9.40125,0 c -0.81625,0 -1.47625,0.66 -1.47625,1.475 l 0,9.40125 c 0,0.81625 0.66,1.4775 1.47625,1.4775 l 9.40125,0 z"
         style="fill:#373535;fill-opacity:1;fill-rule:nonzero;stroke:none"
         id="path6590"
         inkscape:connector-curvature="0" />
      <g
         style="fill:#ffffff"
         transform="matrix(0.63001711,0,0,0.63001711,305.85202,445.5927)"
         id="g62383">
        <path
           d="m 104.023,140.33 0,6.847 14.504,0 c 0,0 -0.417,-0.654 -1.49,-0.811 -1.353,-0.195 -2.156,-0.439 -3.318,-1.019 -1.323,-0.659 -2.325,-0.601 -2.64,-1.307 l -1.098,0.209 c 0,0 -0.598,0.156 -1.475,-0.653 -0.877,-0.809 -1.113,-0.987 -1.113,-0.987 l -1.019,-0.567 -0.705,-0.823 c 0,0 -0.314,-0.22 -0.549,-0.371 -0.235,-0.152 -0.418,-0.596 -0.522,-0.518 -0.105,0.078 -0.575,0 -0.575,0 z"
           id="path13571"
           inkscape:connector-curvature="0"
           style="fill:#ffffff" />
        <ellipse
           style="fill:#ffffff"
           id="ellipse13575"
           ry="1.126"
           rx="1.176"
           cy="132.8"
           cx="116.579"
           transform="matrix(1,0.0054,-0.0054,1,0.7183,-0.6272)" />
        <path
           style="fill:#ffffff"
           inkscape:connector-curvature="0"
           id="path13577"
           d="m 108.813,136.33 c -1.766,-0.01 -3.207,1.38 -3.217,3.104 -0.01,1.723 1.416,3.128 3.182,3.138 1.768,0.01 3.207,-1.38 3.217,-3.103 0.009,-1.724 -1.415,-3.129 -3.182,-3.139 z m -0.031,5.462 c -1.324,-0.008 -2.393,-1.062 -2.386,-2.354 0.007,-1.293 1.087,-2.336 2.411,-2.328 1.326,0.007 2.395,1.063 2.388,2.355 -0.007,1.293 -1.087,2.334 -2.413,2.327 z" />
        <path
           style="fill:#ffffff"
           inkscape:connector-curvature="0"
           id="path13579"
           d="m 116.541,139.69 c -1.767,-0.01 -3.207,1.379 -3.217,3.104 -0.01,1.723 1.415,3.129 3.182,3.139 1.767,0.01 3.206,-1.381 3.216,-3.104 0.009,-1.724 -1.414,-3.129 -3.181,-3.139 z m -0.03,5.462 c -1.325,-0.008 -2.394,-1.063 -2.387,-2.354 0.007,-1.293 1.087,-2.334 2.412,-2.327 1.324,0.008 2.394,1.062 2.387,2.354 -0.007,1.292 -1.088,2.335 -2.412,2.327 z" />
        <path
           style="fill:#ffffff"
           inkscape:connector-curvature="0"
           id="path13581"
           d="m 117.783,137.091 c -0.014,-0.003 -0.026,0 -0.039,0 0.12,0.263 0.095,0.543 -0.087,0.679 -0.166,0.126 -0.412,0.094 -0.622,-0.057 l -3.239,-0.301 -1.987,-0.182 -0.147,-0.014 c -0.011,-0.001 -0.022,0.001 -0.035,0.001 -0.029,-0.004 -0.06,0 -0.082,0.018 l -2.791,2.073 -0.032,-0.002 c -0.03,-0.002 -0.059,0.036 -0.074,0.089 -0.03,0.035 -0.033,0.089 -0.011,0.141 0.01,0.063 0.036,0.108 0.07,0.109 l 2.359,0.102 c 0.013,0 0.022,-0.005 0.035,-0.014 0.018,-0.001 0.035,-0.001 0.055,-0.008 l 1.693,-0.467 1.529,-0.422 2.815,-0.776 c 0.041,-0.011 0.094,0 0.094,0 l -0.954,4.473 c -0.025,0.12 0.066,0.24 0.209,0.271 0.142,0.03 0.276,-0.04 0.302,-0.161 l 1.146,-5.279 c 0.027,-0.12 -0.066,-0.242 -0.207,-0.273 z m -3.354,1.408 -1.451,0.4 -1.876,0.518 c -0.008,-0.004 -0.014,-0.008 -0.021,-0.009 l -1.833,-0.079 2.422,-1.8 0.443,0.042 1.987,0.184 2.27,0.209 -1.941,0.535 z" />
        <path
           d="m 112.138,141.238 c -0.134,0.373 0.031,0.772 0.368,0.893 0.336,0.122 0.716,-0.083 0.851,-0.454 l 1.021,-2.84 -1.529,0.422 -0.711,1.979 z"
           id="path13585"
           inkscape:connector-curvature="0"
           style="fill:#ffffff" />
        <path
           d="m 114.231,137.903 -0.132,-0.148 -1.987,-0.184 0.957,1.076 -0.092,0.252 1.451,-0.4 c -10e-4,-0.021 0.001,-0.042 -10e-4,-0.062 0.007,-0.185 -0.057,-0.377 -0.196,-0.534 z"
           id="path13587"
           inkscape:connector-curvature="0"
           style="fill:#ffffff" />
        <path
           d="m 117.744,137.091 c -0.028,-0.06 -0.06,-0.117 -0.101,-0.174 l -2.542,-3.374 c -0.228,-0.304 -0.593,-0.416 -0.814,-0.248 -0.101,0.077 -0.853,0.495 -1.21,0.707 l -0.946,0.561 c -0.562,0.332 -0.944,0.792 -1.063,1.211 -0.106,0.244 -0.061,0.554 0.142,0.781 l 0.6,0.676 1.987,0.182 -0.852,-0.955 c 0.08,-0.038 0.159,-0.076 0.235,-0.121 l 0.947,-0.562 c 0.359,-0.212 0.642,-0.479 0.833,-0.751 l 1.883,2.499 c 0.058,0.075 0.122,0.141 0.192,0.19 0.21,0.15 0.456,0.183 0.622,0.057 0.182,-0.136 0.207,-0.416 0.087,-0.679 z"
           id="path13589"
           inkscape:connector-curvature="0"
           style="fill:#ffffff" />
      </g>
    </g>
    <g
       transform="matrix(1.25,0,0,-1.25,96.84971,1439.3635)"
       id="g21211">
      <path
         d="m 37.5767,792.6465 c -0.54,0 -0.98,-0.441 -0.98,-0.982 l 0,-7.522 c 0,-0.539 0.44,-0.978 0.98,-0.978 l 7.522,0 c 0.541,0 0.981,0.439 0.981,0.978 l 0,7.522 c 0,0.541 -0.44,0.982 -0.981,0.982 l -7.522,0 z"
         style="fill:#ffffff;fill-opacity:1;fill-rule:nonzero;stroke:none"
         id="path6574"
         inkscape:connector-curvature="0" />
      <path
         d="m 45.0991,782.9629 c 0.652,0 1.181,0.527 1.181,1.18 l 0,7.521 c 0,0.653 -0.529,1.182 -1.181,1.182 l -7.522,0 c -0.652,0 -1.181,-0.529 -1.181,-1.182 l 0,-7.521 c 0,-0.653 0.529,-1.18 1.181,-1.18 l 7.522,0 z"
         style="fill:#373535;fill-opacity:1;fill-rule:nonzero;stroke:none"
         id="path6578-8"
         inkscape:connector-curvature="0" />
      <path
         d="m 38.6782,790.004 0,0.728 5.291,0 0,-0.728 -1.336,0 0.796,-1.971 1.971,0 0,-0.728 -1.674,0 0.931,-2.295 -0.904,0 -0.931,2.295 -3.01,0 -0.925,-2.295 -0.904,0 0.924,2.295 -1.66,0 0,0.728 1.957,0 0.797,1.971 -1.323,0 z m 1.35,-1.971 2.416,0 -0.796,1.971 -0.824,0 -0.796,-1.971 z"
         style="fill:#ffffff;fill-opacity:1;fill-rule:nonzero;stroke:none"
         id="path6582"
         inkscape:connector-curvature="0" />
    </g>
  </g>
</svg>
