<?xml version="1.0" encoding="UTF-8" standalone="no"?>
<!-- Created with Inkscape (http://www.inkscape.org/) -->

<svg
   xmlns:dc="http://purl.org/dc/elements/1.1/"
   xmlns:cc="http://creativecommons.org/ns#"
   xmlns:rdf="http://www.w3.org/1999/02/22-rdf-syntax-ns#"
   xmlns:svg="http://www.w3.org/2000/svg"
   xmlns="http://www.w3.org/2000/svg"
   xmlns:sodipodi="http://sodipodi.sourceforge.net/DTD/sodipodi-0.dtd"
   xmlns:inkscape="http://www.inkscape.org/namespaces/inkscape"
   width="10.922549mm"
   height="3.4865732mm"
   viewBox="0 0 38.701944 12.354"
   id="svg3349"
   version="1.1"
   inkscape:version="0.91 r13725"
   sodipodi:docname="mtnbike_picnic_visitorcenter.svg">
  <defs
     id="defs3351" />
  <sodipodi:namedview
     id="base"
     pagecolor="#ffffff"
     bordercolor="#666666"
     borderopacity="1.0"
     inkscape:pageopacity="0.0"
     inkscape:pageshadow="2"
     inkscape:zoom="5.6"
     inkscape:cx="-1.1388082"
     inkscape:cy="9.900055"
     inkscape:document-units="px"
     inkscape:current-layer="layer1"
     showgrid="false"
     fit-margin-top="0"
     fit-margin-left="0"
     fit-margin-right="0"
     fit-margin-bottom="0"
     inkscape:window-width="779"
     inkscape:window-height="685"
     inkscape:window-x="72"
     inkscape:window-y="49"
     inkscape:window-maximized="0" />
  <metadata
     id="metadata3354">
    <rdf:RDF>
      <cc:Work
         rdf:about="">
        <dc:format>image/svg+xml</dc:format>
        <dc:type
           rdf:resource="http://purl.org/dc/dcmitype/StillImage" />
        <dc:title></dc:title>
      </cc:Work>
    </rdf:RDF>
  </metadata>
  <g
     inkscape:label="Layer 1"
     inkscape:groupmode="layer"
     id="layer1"
     transform="translate(-129.33233,-448.41163)">
    <g
       id="g3400">
      <g
         id="g62435"
         transform="translate(-214.47622,-78.845245)">
        <path
           inkscape:connector-curvature="0"
           id="path6586"
           style="fill:#ffffff;fill-opacity:1;fill-rule:nonzero;stroke:none"
           d="m 371.63238,527.50762 c -0.67625,0 -1.22501,0.54875 -1.22501,1.225 l 0,9.40251 c 0,0.67624 0.54875,1.225 1.22501,1.225 l 9.40125,0 c 0.67624,0 1.22625,-0.54876 1.22625,-1.225 l 0,-9.40251 c 0,-0.67625 -0.55001,-1.225 -1.22625,-1.225 l -9.40125,0 z" />
        <path
           inkscape:connector-curvature="0"
           id="path6590"
           style="fill:#373535;fill-opacity:1;fill-rule:nonzero;stroke:none"
           d="m 381.03425,539.61075 c 0.815,0 1.47625,-0.66125 1.47625,-1.4775 l 0,-9.40125 c 0,-0.815 -0.66125,-1.475 -1.47625,-1.475 l -9.40125,0 c -0.81625,0 -1.47625,0.66 -1.47625,1.475 l 0,9.40125 c 0,0.81625 0.66,1.4775 1.47625,1.4775 l 9.40125,0 z" />
        <g
           id="g62383"
           transform="matrix(0.63001711,0,0,0.63001711,305.85202,445.5927)"
           style="fill:#ffffff">
          <path
             style="fill:#ffffff"
             inkscape:connector-curvature="0"
             id="path13571"
             d="m 104.023,140.33 0,6.847 14.504,0 c 0,0 -0.417,-0.654 -1.49,-0.811 -1.353,-0.195 -2.156,-0.439 -3.318,-1.019 -1.323,-0.659 -2.325,-0.601 -2.64,-1.307 l -1.098,0.209 c 0,0 -0.598,0.156 -1.475,-0.653 -0.877,-0.809 -1.113,-0.987 -1.113,-0.987 l -1.019,-0.567 -0.705,-0.823 c 0,0 -0.314,-0.22 -0.549,-0.371 -0.235,-0.152 -0.418,-0.596 -0.522,-0.518 -0.105,0.078 -0.575,0 -0.575,0 z" />
          <ellipse
             transform="matrix(1,0.0054,-0.0054,1,0.7183,-0.6272)"
             cx="116.579"
             cy="132.8"
             rx="1.176"
             ry="1.126"
             id="ellipse13575"
             style="fill:#ffffff" />
          <path
             d="m 108.813,136.33 c -1.766,-0.01 -3.207,1.38 -3.217,3.104 -0.01,1.723 1.416,3.128 3.182,3.138 1.768,0.01 3.207,-1.38 3.217,-3.103 0.009,-1.724 -1.415,-3.129 -3.182,-3.139 z m -0.031,5.462 c -1.324,-0.008 -2.393,-1.062 -2.386,-2.354 0.007,-1.293 1.087,-2.336 2.411,-2.328 1.326,0.007 2.395,1.063 2.388,2.355 -0.007,1.293 -1.087,2.334 -2.413,2.327 z"
             id="path13577"
             inkscape:connector-curvature="0"
             style="fill:#ffffff" />
          <path
             d="m 116.541,139.69 c -1.767,-0.01 -3.207,1.379 -3.217,3.104 -0.01,1.723 1.415,3.129 3.182,3.139 1.767,0.01 3.206,-1.381 3.216,-3.104 0.009,-1.724 -1.414,-3.129 -3.181,-3.139 z m -0.03,5.462 c -1.325,-0.008 -2.394,-1.063 -2.387,-2.354 0.007,-1.293 1.087,-2.334 2.412,-2.327 1.324,0.008 2.394,1.062 2.387,2.354 -0.007,1.292 -1.088,2.335 -2.412,2.327 z"
             id="path13579"
             inkscape:connector-curvature="0"
             style="fill:#ffffff" />
          <path
             d="m 117.783,137.091 c -0.014,-0.003 -0.026,0 -0.039,0 0.12,0.263 0.095,0.543 -0.087,0.679 -0.166,0.126 -0.412,0.094 -0.622,-0.057 l -3.239,-0.301 -1.987,-0.182 -0.147,-0.014 c -0.011,-0.001 -0.022,0.001 -0.035,0.001 -0.029,-0.004 -0.06,0 -0.082,0.018 l -2.791,2.073 -0.032,-0.002 c -0.03,-0.002 -0.059,0.036 -0.074,0.089 -0.03,0.035 -0.033,0.089 -0.011,0.141 0.01,0.063 0.036,0.108 0.07,0.109 l 2.359,0.102 c 0.013,0 0.022,-0.005 0.035,-0.014 0.018,-0.001 0.035,-0.001 0.055,-0.008 l 1.693,-0.467 1.529,-0.422 2.815,-0.776 c 0.041,-0.011 0.094,0 0.094,0 l -0.954,4.473 c -0.025,0.12 0.066,0.24 0.209,0.271 0.142,0.03 0.276,-0.04 0.302,-0.161 l 1.146,-5.279 c 0.027,-0.12 -0.066,-0.242 -0.207,-0.273 z m -3.354,1.408 -1.451,0.4 -1.876,0.518 c -0.008,-0.004 -0.014,-0.008 -0.021,-0.009 l -1.833,-0.079 2.422,-1.8 0.443,0.042 1.987,0.184 2.27,0.209 -1.941,0.535 z"
             id="path13581"
             inkscape:connector-curvature="0"
             style="fill:#ffffff" />
          <path
             style="fill:#ffffff"
             inkscape:connector-curvature="0"
             id="path13585"
             d="m 112.138,141.238 c -0.134,0.373 0.031,0.772 0.368,0.893 0.336,0.122 0.716,-0.083 0.851,-0.454 l 1.021,-2.84 -1.529,0.422 -0.711,1.979 z" />
          <path
             style="fill:#ffffff"
             inkscape:connector-curvature="0"
             id="path13587"
             d="m 114.231,137.903 -0.132,-0.148 -1.987,-0.184 0.957,1.076 -0.092,0.252 1.451,-0.4 c -10e-4,-0.021 0.001,-0.042 -10e-4,-0.062 0.007,-0.185 -0.057,-0.377 -0.196,-0.534 z" />
          <path
             style="fill:#ffffff"
             inkscape:connector-curvature="0"
             id="path13589"
             d="m 117.744,137.091 c -0.028,-0.06 -0.06,-0.117 -0.101,-0.174 l -2.542,-3.374 c -0.228,-0.304 -0.593,-0.416 -0.814,-0.248 -0.101,0.077 -0.853,0.495 -1.21,0.707 l -0.946,0.561 c -0.562,0.332 -0.944,0.792 -1.063,1.211 -0.106,0.244 -0.061,0.554 0.142,0.781 l 0.6,0.676 1.987,0.182 -0.852,-0.955 c 0.08,-0.038 0.159,-0.076 0.235,-0.121 l 0.947,-0.562 c 0.359,-0.212 0.642,-0.479 0.833,-0.751 l 1.883,2.499 c 0.058,0.075 0.122,0.141 0.192,0.19 0.21,0.15 0.456,0.183 0.622,0.057 0.182,-0.136 0.207,-0.416 0.087,-0.679 z" />
        </g>
      </g>
      <g
         id="g21211"
         transform="matrix(1.25,0,0,-1.25,97.011241,1439.4691)">
        <path
           inkscape:connector-curvature="0"
           id="path6574"
           style="fill:#ffffff;fill-opacity:1;fill-rule:nonzero;stroke:none"
           d="m 37.5767,792.6465 c -0.54,0 -0.98,-0.441 -0.98,-0.982 l 0,-7.522 c 0,-0.539 0.44,-0.978 0.98,-0.978 l 7.522,0 c 0.541,0 0.981,0.439 0.981,0.978 l 0,7.522 c 0,0.541 -0.44,0.982 -0.981,0.982 l -7.522,0 z" />
        <path
           inkscape:connector-curvature="0"
           id="path6578-8"
           style="fill:#373535;fill-opacity:1;fill-rule:nonzero;stroke:none"
           d="m 45.0991,782.9629 c 0.652,0 1.181,0.527 1.181,1.18 l 0,7.521 c 0,0.653 -0.529,1.182 -1.181,1.182 l -7.522,0 c -0.652,0 -1.181,-0.529 -1.181,-1.182 l 0,-7.521 c 0,-0.653 0.529,-1.18 1.181,-1.18 l 7.522,0 z" />
        <path
           inkscape:connector-curvature="0"
           id="path6582"
           style="fill:#ffffff;fill-opacity:1;fill-rule:nonzero;stroke:none"
           d="m 38.6782,790.004 0,0.728 5.291,0 0,-0.728 -1.336,0 0.796,-1.971 1.971,0 0,-0.728 -1.674,0 0.931,-2.295 -0.904,0 -0.931,2.295 -3.01,0 -0.925,-2.295 -0.904,0 0.924,2.295 -1.66,0 0,0.728 1.957,0 0.797,1.971 -1.323,0 z m 1.35,-1.971 2.416,0 -0.796,1.971 -0.824,0 -0.796,-1.971 z" />
      </g>
      <g
         id="g3370"
         transform="translate(-244.29867,-82.39537)">
        <path
           id="path6578"
           inkscape:connector-curvature="0"
           d="m 384.51,543.161 c 0.815,0 1.477,-0.659 1.477,-1.475 l 0,-9.401 c 0,-0.816 -0.661,-1.478 -1.477,-1.478 l -9.402,0 c -0.815,0 -1.477,0.661 -1.477,1.478 l 0,9.401 c 0,0.815 0.661,1.475 1.477,1.475 l 9.402,0 z"
           style="fill:#373535" />
        <g
           id="g3365"
           transform="matrix(1.2926445,0,0,1.2926445,-111.15971,-157.14592)">
          <path
             id="path18257"
             inkscape:connector-curvature="0"
             d="m 379.72938,536.79768 c 0.49373,0.012 0.90328,-0.37473 0.91721,-0.8672 0.0165,-0.49247 -0.37284,-0.90265 -0.86404,-0.91784 -0.49437,-0.0139 -0.90455,0.37283 -0.91911,0.86593 -0.0139,0.49247 0.37284,0.90328 0.86594,0.91911 l 0,0 z"
             style="fill:#ffffff" />
          <path
             id="path18259"
             inkscape:connector-curvature="0"
             d="m 378.06271,536.41219 c 0.16394,-0.003 0.68046,0.0804 1.02418,0.34308 0.34118,0.26143 0.56906,0.56146 0.66021,0.71591 0.0291,0.0462 0.0608,0.0987 0.0703,0.16142 0.0127,-0.0627 0.0335,-0.12217 0.0563,-0.15319 0.062,-0.0994 0.34308,-0.46398 0.48361,-0.58425 0.25699,-0.21965 0.53994,-0.43423 1.23244,-0.49563 l -0.004,0.93809 c -0.1247,0.005 -0.39372,0.0791 -0.62477,0.27156 -0.23547,0.19812 -0.49626,0.57982 -0.57729,0.85327 -0.0823,0.27156 -0.0949,0.49817 -0.10001,0.65895 l -0.0127,1.82429 -0.88049,0.005 -0.003,-1.81922 c -0.003,-0.17218 -0.0373,-0.52222 -0.12913,-0.69503 -0.0918,-0.17281 -0.29181,-0.65008 -0.64945,-0.88113 -0.11014,-0.0703 -0.27598,-0.21458 -0.54374,-0.21648 l -0.003,-0.9267 0,0 0,0 z"
             style="fill:#ffffff" />
          <path
             id="path18261"
             inkscape:connector-curvature="0"
             d="m 379.81167,534.11695 c 0.0228,0.0279 0.0633,0.0715 0.10318,0.0994 0.0532,0.0361 0.71464,0.45829 1.37486,1.11913 0.20825,0.20826 0.76655,0.88113 0.77035,1.71288 0.003,0.74251 -0.41714,1.27612 -0.46778,1.32929 -0.15698,0.17787 -0.72921,0.63299 -1.06153,0.67667 l -0.005,0.96468 c 0.41335,-0.081 1.10964,-0.35068 1.504,-0.74883 0.39625,-0.39942 0.72477,-0.87859 0.871,-1.48563 0.169,-0.69503 0.0468,-1.48817 -0.16965,-1.94583 -0.28611,-0.614 -0.78111,-1.19509 -1.40144,-1.69072 l -1.52172,-1.12989 -1.51729,1.13559 c -0.61843,0.49943 -1.1071,1.08241 -1.39258,1.69705 -0.21395,0.46019 -0.33422,1.25333 -0.16015,1.94772 0.15065,0.60451 0.48108,1.08369 0.87733,1.48121 0.39752,0.39625 1.09508,0.66211 1.50779,0.74123 l -0.009,-0.96468 c -0.33232,-0.0399 -0.90708,-0.495 -1.0647,-0.66971 -0.0506,-0.0525 -0.47094,-0.58488 -0.47094,-1.32738 -0.002,-0.83112 0.55513,-1.50716 0.75959,-1.71605 0.65705,-0.66654 1.31726,-1.09001 1.37043,-1.12736 0.0411,-0.0253 0.0804,-0.0709 0.10318,-0.0987 l 0,0 z"
             style="fill:#ffffff" />
        </g>
      </g>
    </g>
  </g>
</svg>
