<?xml version="1.0" encoding="UTF-8" standalone="no"?>
<!-- Created with Inkscape (http://www.inkscape.org/) -->

<svg
   xmlns:dc="http://purl.org/dc/elements/1.1/"
   xmlns:cc="http://creativecommons.org/ns#"
   xmlns:rdf="http://www.w3.org/1999/02/22-rdf-syntax-ns#"
   xmlns:svg="http://www.w3.org/2000/svg"
   xmlns="http://www.w3.org/2000/svg"
   xmlns:sodipodi="http://sodipodi.sourceforge.net/DTD/sodipodi-0.dtd"
   xmlns:inkscape="http://www.inkscape.org/namespaces/inkscape"
   width="7.3026314mm"
   height="3.4875612mm"
   viewBox="0 0 25.875464 12.357501"
   id="svg3349"
   version="1.1"
   inkscape:version="0.91 r13725"
   sodipodi:docname="picnic_sledding.svg">
  <defs
     id="defs3351" />
  <sodipodi:namedview
     id="base"
     pagecolor="#ffffff"
     bordercolor="#666666"
     borderopacity="1.0"
     inkscape:pageopacity="0.0"
     inkscape:pageshadow="2"
     inkscape:zoom="3.959798"
     inkscape:cx="0.87808894"
     inkscape:cy="14.338442"
     inkscape:document-units="px"
     inkscape:current-layer="layer1"
     showgrid="false"
     fit-margin-top="0"
     fit-margin-left="0"
     fit-margin-right="0"
     fit-margin-bottom="0"
     inkscape:window-width="638"
     inkscape:window-height="405"
     inkscape:window-x="72"
     inkscape:window-y="49"
     inkscape:window-maximized="0" />
  <metadata
     id="metadata3354">
    <rdf:RDF>
      <cc:Work
         rdf:about="">
        <dc:format>image/svg+xml</dc:format>
        <dc:type
           rdf:resource="http://purl.org/dc/dcmitype/StillImage" />
        <dc:title></dc:title>
      </cc:Work>
    </rdf:RDF>
  </metadata>
  <g
     inkscape:label="Layer 1"
     inkscape:groupmode="layer"
     id="layer1"
     transform="translate(-142.34483,-448.23503)">
    <g
       transform="matrix(1.25,0,0,-1.25,96.84971,1439.2943)"
       id="g21211">
      <path
         d="m 37.5767,792.6465 c -0.54,0 -0.98,-0.441 -0.98,-0.982 l 0,-7.522 c 0,-0.539 0.44,-0.978 0.98,-0.978 l 7.522,0 c 0.541,0 0.981,0.439 0.981,0.978 l 0,7.522 c 0,0.541 -0.44,0.982 -0.981,0.982 l -7.522,0 z"
         style="fill:#ffffff;fill-opacity:1;fill-rule:nonzero;stroke:none"
         id="path6574"
         inkscape:connector-curvature="0" />
      <path
         d="m 45.0991,782.9629 c 0.652,0 1.181,0.527 1.181,1.18 l 0,7.521 c 0,0.653 -0.529,1.182 -1.181,1.182 l -7.522,0 c -0.652,0 -1.181,-0.529 -1.181,-1.182 l 0,-7.521 c 0,-0.653 0.529,-1.18 1.181,-1.18 l 7.522,0 z"
         style="fill:#373535;fill-opacity:1;fill-rule:nonzero;stroke:none"
         id="path6578-8"
         inkscape:connector-curvature="0" />
      <path
         d="m 38.6782,790.004 0,0.728 5.291,0 0,-0.728 -1.336,0 0.796,-1.971 1.971,0 0,-0.728 -1.674,0 0.931,-2.295 -0.904,0 -0.931,2.295 -3.01,0 -0.925,-2.295 -0.904,0 0.924,2.295 -1.66,0 0,0.728 1.957,0 0.797,1.971 -1.323,0 z m 1.35,-1.971 2.416,0 -0.796,1.971 -0.824,0 -0.796,-1.971 z"
         style="fill:#ffffff;fill-opacity:1;fill-rule:nonzero;stroke:none"
         id="path6582"
         inkscape:connector-curvature="0" />
    </g>
    <g
       transform="matrix(1.25,0,0,-1.25,110.37005,1232.9229)"
       id="g21654">
      <path
         d="m 37.5767,627.5523 c -0.54,0 -0.98,-0.441 -0.98,-0.982 l 0,-7.524 c 0,-0.541 0.44,-0.981 0.98,-0.981 l 7.521,0 c 0.542,0 0.982,0.44 0.982,0.981 l 0,7.524 c 0,0.541 -0.44,0.982 -0.982,0.982 l -7.521,0 z"
         style="fill:#ffffff;fill-opacity:1;fill-rule:nonzero;stroke:none"
         id="path6618"
         inkscape:connector-curvature="0" />
      <path
         d="m 45.0982,617.8643 c 0.652,0 1.182,0.529 1.182,1.182 l 0,7.524 c 0,0.652 -0.53,1.18 -1.182,1.18 l -7.521,0 c -0.653,0 -1.181,-0.528 -1.181,-1.18 l 0,-7.524 c 0,-0.653 0.528,-1.182 1.181,-1.182 l 7.521,0 z"
         style="fill:#373535;fill-opacity:1;fill-rule:nonzero;stroke:none"
         id="path6622"
         inkscape:connector-curvature="0" />
      <path
         d="m 44.3267,621.5108 c 0.431,0 0.779,0.35 0.779,0.781 0,0.432 -0.348,0.779 -0.779,0.779 -0.431,0 -0.779,-0.347 -0.779,-0.779 0,-0.431 0.348,-0.781 0.779,-0.781"
         style="fill:#ffffff;fill-opacity:1;fill-rule:nonzero;stroke:none"
         id="path6626"
         inkscape:connector-curvature="0" />
      <path
         d="m 44.8843,619.7686 c 0.034,-0.012 0.071,-0.018 0.11,-0.018 0.2,0 0.362,0.162 0.362,0.362 0,0.15 -0.093,0.281 -0.225,0.334 l -1.078,0.42 -0.784,1.394 c 0,0 -0.065,0.154 -0.292,0.238 l -2.573,1.034 -1.531,2.592 c -0.089,0.148 -0.252,0.25 -0.439,0.25 -0.283,0 -0.512,-0.231 -0.512,-0.514 0,-0.09 0.023,-0.174 0.064,-0.248 l 1.9,-3.223 -1.204,0.482 -0.303,-0.183 4.811,-1.893 -10e-4,0 0.196,-0.312 c 0,0 0.078,-0.168 0.312,-0.26 l 0.596,-0.232 c -0.389,-0.389 -0.933,-0.221 -0.933,-0.221 l -5.874,2.359 -0.325,-0.193 6.134,-2.426 c 0.713,-0.26 1.296,0.363 1.296,0.363 l 0,-0.002 0.293,-0.103 z"
         style="fill:#ffffff;fill-opacity:1;fill-rule:nonzero;stroke:none"
         id="path6630"
         inkscape:connector-curvature="0" />
    </g>
  </g>
</svg>
