<?xml version="1.0" encoding="UTF-8" standalone="no"?>
<!-- Generator: Adobe Illustrator 16.0.3, SVG Export Plug-In . SVG Version: 6.00 Build 0)  -->

<svg
   xmlns:dc="http://purl.org/dc/elements/1.1/"
   xmlns:cc="http://creativecommons.org/ns#"
   xmlns:rdf="http://www.w3.org/1999/02/22-rdf-syntax-ns#"
   xmlns:svg="http://www.w3.org/2000/svg"
   xmlns="http://www.w3.org/2000/svg"
   xmlns:sodipodi="http://sodipodi.sourceforge.net/DTD/sodipodi-0.dtd"
   xmlns:inkscape="http://www.inkscape.org/namespaces/inkscape"
   version="1.1"
   id="svg19793"
   sodipodi:docname="visitorcenter.svg"
   inkscape:version="0.91 r13725"
   x="0px"
   y="0px"
   width="12.355px"
   height="12.354px"
   viewBox="0 0 12.355 12.354"
   enable-background="new 0 0 12.355 12.354"
   xml:space="preserve"><metadata
     id="metadata17"><rdf:RDF><cc:Work
         rdf:about=""><dc:format>image/svg+xml</dc:format><dc:type
           rdf:resource="http://purl.org/dc/dcmitype/StillImage" /></cc:Work></rdf:RDF></metadata><defs
     id="defs15" /><sodipodi:namedview
     id="base"
     inkscape:document-units="px"
     fit-margin-right="0"
     fit-margin-bottom="0"
     fit-margin-left="0"
     fit-margin-top="0"
     inkscape:window-maximized="0"
     inkscape:window-y="225"
     inkscape:window-height="480"
     inkscape:pageshadow="2"
     inkscape:current-layer="layer1"
     inkscape:window-width="638"
     inkscape:window-x="734"
     inkscape:pageopacity="0.0"
     showgrid="false"
     bordercolor="#666666"
     borderopacity="1.0"
     inkscape:zoom="11.2"
     inkscape:cx="6.7362959"
     pagecolor="#ffffff"
     inkscape:cy="4.1586138"
     showguides="false" /><g
     id="layer1"
     transform="translate(-373.63164,-530.80754)"
     inkscape:label="Layer 1"
     inkscape:groupmode="layer"><g
       id="g3370"><path
         style="fill:#373535"
         d="m 384.51,543.161 c 0.815,0 1.477,-0.659 1.477,-1.475 l 0,-9.401 c 0,-0.816 -0.661,-1.478 -1.477,-1.478 l -9.402,0 c -0.815,0 -1.477,0.661 -1.477,1.478 l 0,9.401 c 0,0.815 0.661,1.475 1.477,1.475 l 9.402,0 z"
         inkscape:connector-curvature="0"
         id="path6578" /><g
         transform="matrix(1.2926445,0,0,1.2926445,-111.15971,-157.14592)"
         id="g3365"><path
           style="fill:#ffffff"
           d="m 379.72938,536.79768 c 0.49373,0.012 0.90328,-0.37473 0.91721,-0.8672 0.0165,-0.49247 -0.37284,-0.90265 -0.86404,-0.91784 -0.49437,-0.0139 -0.90455,0.37283 -0.91911,0.86593 -0.0139,0.49247 0.37284,0.90328 0.86594,0.91911 l 0,0 z"
           inkscape:connector-curvature="0"
           id="path18257" /><path
           style="fill:#ffffff"
           d="m 378.06271,536.41219 c 0.16394,-0.003 0.68046,0.0804 1.02418,0.34308 0.34118,0.26143 0.56906,0.56146 0.66021,0.71591 0.0291,0.0462 0.0608,0.0987 0.0703,0.16142 0.0127,-0.0627 0.0335,-0.12217 0.0563,-0.15319 0.062,-0.0994 0.34308,-0.46398 0.48361,-0.58425 0.25699,-0.21965 0.53994,-0.43423 1.23244,-0.49563 l -0.004,0.93809 c -0.1247,0.005 -0.39372,0.0791 -0.62477,0.27156 -0.23547,0.19812 -0.49626,0.57982 -0.57729,0.85327 -0.0823,0.27156 -0.0949,0.49817 -0.10001,0.65895 l -0.0127,1.82429 -0.88049,0.005 -0.003,-1.81922 c -0.003,-0.17218 -0.0373,-0.52222 -0.12913,-0.69503 -0.0918,-0.17281 -0.29181,-0.65008 -0.64945,-0.88113 -0.11014,-0.0703 -0.27598,-0.21458 -0.54374,-0.21648 l -0.003,-0.9267 0,0 0,0 z"
           inkscape:connector-curvature="0"
           id="path18259" /><path
           style="fill:#ffffff"
           d="m 379.81167,534.11695 c 0.0228,0.0279 0.0633,0.0715 0.10318,0.0994 0.0532,0.0361 0.71464,0.45829 1.37486,1.11913 0.20825,0.20826 0.76655,0.88113 0.77035,1.71288 0.003,0.74251 -0.41714,1.27612 -0.46778,1.32929 -0.15698,0.17787 -0.72921,0.63299 -1.06153,0.67667 l -0.005,0.96468 c 0.41335,-0.081 1.10964,-0.35068 1.504,-0.74883 0.39625,-0.39942 0.72477,-0.87859 0.871,-1.48563 0.169,-0.69503 0.0468,-1.48817 -0.16965,-1.94583 -0.28611,-0.614 -0.78111,-1.19509 -1.40144,-1.69072 l -1.52172,-1.12989 -1.51729,1.13559 c -0.61843,0.49943 -1.1071,1.08241 -1.39258,1.69705 -0.21395,0.46019 -0.33422,1.25333 -0.16015,1.94772 0.15065,0.60451 0.48108,1.08369 0.87733,1.48121 0.39752,0.39625 1.09508,0.66211 1.50779,0.74123 l -0.009,-0.96468 c -0.33232,-0.0399 -0.90708,-0.495 -1.0647,-0.66971 -0.0506,-0.0525 -0.47094,-0.58488 -0.47094,-1.32738 -0.002,-0.83112 0.55513,-1.50716 0.75959,-1.71605 0.65705,-0.66654 1.31726,-1.09001 1.37043,-1.12736 0.0411,-0.0253 0.0804,-0.0709 0.10318,-0.0987 l 0,0 z"
           inkscape:connector-curvature="0"
           id="path18261" /></g></g></g></svg>